<?xml version="1.0" encoding="utf-8"?>
<svg version="1.1" xmlns:xlink="http://www.w3.org/1999/xlink" width="24px" height="17px" xmlns="http://www.w3.org/2000/svg">
  <g transform="matrix(1 0 0 1 -1221 -1008 )">
    <path d="M 3.75 0  C 3.33515624999995 0.0450000000000728  3 0.380156250000027  3 0.795000000000073  L 3 13.7325000000001  C 3 13.8356249999999  3.08437499999991 13.9200000000001  3.1875 14  L 20.8125 14  C 20.9156250000001 13.9200000000001  21 13.8356249999999  21 13.7325000000001  L 21 0.795000000000073  C 21 0.380156250000027  20.66484375 0.0450000000000728  20.25 0  L 3.75 0  Z M 4.59375 11.6700000000001  C 4.54218749999995 11.6700000000001  4.5 11.6278125000001  4.5 11.5762500000001  L 4.5 1.73250000000007  C 4.5 1.62937499999998  4.58437499999991 1.54500000000007  4.6875 1.54500000000007  L 19.3125 1.54500000000007  C 19.4156250000001 1.54500000000007  19.5 1.62937499999998  19.5 1.73250000000007  L 19.5 11.5762500000001  C 19.5 11.6278125000001  19.4578125 11.6700000000001  19.40625 11.6700000000001  L 4.59375 11.6700000000001  Z M 23.8125 14.6700000000001  C 23.9156250000001 14.6700000000001  24 14.754375  24 14.8575000000001  L 24 15.4200000000001  C 24 15.8348437500001  23.66484375 16.1700000000001  23.25 16  L 0.75 16  C 0.335156249999955 16.1700000000001  0 15.8348437500001  0 15.4200000000001  L 0 14.8575000000001  C 0 14.754375  0.0843749999999091 14.6700000000001  0.1875 14.6700000000001  L 10.3125 14.6700000000001  C 10.4156250000001 14.6700000000001  10.5 14.754375  10.5 14.8575000000001  C 10.5 14.9606249999999  10.5843749999999 15.0450000000001  10.6875 15.0450000000001  L 13.3125 15.0450000000001  C 13.4156250000001 15.0450000000001  13.5 14.9606249999999  13.5 14.8575000000001  C 13.5 14.754375  13.5843749999999 14.6700000000001  13.6875 14.6700000000001  L 23.8125 14.6700000000001  Z " fill-rule="nonzero" fill="#128183" stroke="none" transform="matrix(1 0 0 1 1221 1008 )" />
  </g>
</svg>