<?xml version="1.0" encoding="utf-8"?>
<svg version="1.1" xmlns:xlink="http://www.w3.org/1999/xlink" width="24px" height="21px" xmlns="http://www.w3.org/2000/svg">
  <g transform="matrix(1 0 0 1 -1349 -1006 )">
    <path d="M 3.38769911836584 17.7678677723463  C 4.57948997032122 16.9875253491621  6.10600804818432 16.151872913757  6.52613885300275 16.1224492929468  C 7.58112860509777 16.439302609986  8.68982047835198 16.6003018418296  9.82214772171778 16.6003018418296  C 15.2343799231844 16.6003286312848  19.6373120373603 12.8807052810755  19.6373120373603 8.30868108414802  C 19.6373120373603 3.73716604399442  15.2343798969973 0.0175962988826086  9.82217451117322 0.0175962988826086  C 4.40980833624303 0.0175962988826086  0.00687622206714877 3.73719285963693  0.00687622206714877 8.30868108414802  C 0.00687622206714877 10.3257805254889  0.872568619064168 12.2695084933659  2.42274888268162 13.756205551676  C 2.61494036312843 14.0557745111732  2.64031757157818 15.6700007419693  2.47642421438536 17.2103463163407  L 2.34423228875698 18.4506138006284  L 3.38769911836584 17.7678677723463  Z M 21.585166838338 20.4590308659217  L 21.452412150838 19.2181738303073  C 21.2879292685057 17.6783909916201  21.3127437150838 16.0647007070531  21.4847298969971 15.7894102740922  C 23.0556781948324 14.2779791375699  23.9213705918296 12.3341708013268  23.9219601169693 10.3170981494413  C 23.9219601169693 7.99817875349163  22.7630765624999 5.7704511609636  20.7419307087989 4.20467477304464  C 20.4834154766061 4.00556954434364  20.1128600122206 4.05171478701118  19.9126024965085 4.31028362430175  C 19.856622564595 4.38244923184357  19.8248943697627 4.46324361033521  19.8069936452514 4.54690532472068  C 20.473018051676 5.74159030202509  20.8562219361033 7.07015546438538  20.8562219361033 8.47605811801668  C 20.8562219361033 12.9609101344274  17.0667375785615 16.7105466305866  12.0520459148045 17.5641533694134  C 11.9983705831005 17.6392131023044  11.9562449371508 17.7228748166899  11.9418279155027 17.8204176064944  C 11.8956558571927 18.1436219361033  12.1195755586591 18.4431105010474  12.4427530988128 18.489845295042  C 14.0997212901536 18.7282356232543  15.8288014839386 18.6029842353353  17.4020811714386 18.1303035963688  C 17.8222387657122 18.1597540328212  19.3493196054469 18.9954332314944  20.5411104574023 19.775722075768  L 21.585166838338 20.4590308659217  Z M 8.71809181215076 8.17997283519549  C 8.71522447625694 7.55663681040505  9.21907057437147 7.04879787884079  9.84235302025149 7.04531420216472  C 10.4656890450419 7.04244686627089  10.9735547922485 7.54685572625704  10.9758325768157 8.16957541026545  C 10.9787803072627 8.79403693261179  10.475470155377 9.30133989175988  9.85159815817042 9.30423404329599  C 9.22828892283519 9.30712816864525  8.72101272695522 8.80325528107551  8.71809181215076 8.17997283519549  Z M 3.98560435579611 8.17997283519549  C 3.98214749476256 7.55663681040505  4.48596677723458 7.04879787884079  5.10983877444141 7.04531420216472  C 5.7319957227653 7.04244686627089  6.24104054643863 7.54685572625704  6.24334512046084 8.16957541026545  C 6.2462392458101 8.79403693261179  5.74239314769557 9.30133989175988  5.11911070181554 9.30423404329599  C 4.49577467702511 9.30712816864525  3.98790892981856 8.80325528107551  3.98560435579611 8.17997283519549  Z M 13.2097771822625 8.17997283519549  C 13.2069098463687 7.55663681040505  13.710729155028 7.04879787884079  14.334038390363 7.04531420216472  C 14.9573208362431 7.04244686627089  15.465213346718 7.54685572625704  15.4675447363827 8.16957541026545  C 15.470438861732 8.79403693261179  14.9671554993017 9.30133989175988  14.3432835282822 9.30423404329599  C 13.7199475034915 9.30712816864525  13.2126713076118 8.80325528107551  13.2097771822625 8.17997283519549  Z " fill-rule="nonzero" fill="#e6bab4" stroke="none" transform="matrix(1 0 0 1 1349 1006 )" />
  </g>
</svg>