<?xml version="1.0" encoding="utf-8"?>
<svg version="1.1" xmlns:xlink="http://www.w3.org/1999/xlink" width="36px" height="29px" xmlns="http://www.w3.org/2000/svg">
  <g transform="matrix(1 0 0 1 -19 -219 )">
    <path d="M 36 15.206875  C 36 14.666610576923  35.9050781250001 14.1681730769232  35.7117187500001 13.7080769230769  C 35.5183593750001 13.2479807692308  35.2265625 12.8262259615386  34.8363281250001 12.4462980769231  C 34.3265625000001 11.940889423077  33.0433593750001 11.6027884615384  32.2417968749999 11.4354807692308  C 31.8199218749999 11.3483413461539  31.4894531249999 11.0276682692307  31.3839843749999 10.6163701923078  L 29.7140624999999 4.01120192307698  C 29.4503906249999 2.92370192307683  28.8351562499999 2.00350961538473  27.8859374999999 1.26805288461529  C 26.9367187499999 0.532596153846113  25.8890625000001 0.159639423076984  24.7394531249999 0.159639423076984  L 11.2394531249999 0.159639423076984  C 10.0933593749999 0.159639423076984  9.0421874999999 0.529110576923087  8.0929687499999 1.26805288461529  C 7.1472656250001 2.00350961538473  6.53554687500005 2.92021634615381  6.2648437499999 4.01120192307698  L 4.5984375000001 10.6128846153847  C 4.4929687500001 11.0276682692307  4.16250000000005 11.3448557692309  3.74062500000005 11.4319951923078  C 2.93906249999995 11.5993028846153  1.6593749999999 11.937403846154  1.14609374999995 12.4428125000001  C 0.383203125000051 13.2026682692307  0 14.1263461538461  0 15.206875  L 0 21.8991826923077  C 0 22.0630048076922  0.0492187500000512 22.1954567307692  0.158203125 22.3000240384615  C 0.260156250000051 22.4011057692308  0.400781250000051 22.456875  0.5625 22.456875  L 2.25 22.456875  L 2.25 24.6876442307692  C 2.25 25.6148076923076  2.56640625 26.4095192307692  3.2273437500001 27.0613221153845  C 3.88828124999995 27.7131250000001  4.67929687499995 28.0372836538461  5.62148437500005 28.0372836538461  C 6.5636718749999 28.0372836538461  7.3582031250001 27.7061538461538  8.015625 27.0613221153845  C 8.6730468749999 26.4060336538462  9 25.6217788461539  9 24.6876442307692  L 9 22  L 27 22  L 27 24.6876442307692  C 27 25.6148076923076  27.3234374999999 26.4060336538462  27.9773437500001 27.0578365384615  C 28.6382812499999 27.7096394230768  29.4292968749999 28.033798076923  30.3714843750001 28.033798076923  C 31.3136718749999 28.033798076923  32.1082031250001 27.7026682692307  32.765625 27.0578365384615  C 33.4230468749999 26.4025480769229  33.75 25.6182932692306  33.75 24.6841586538462  L 33.75 22.456875  L 35.4375 22.456875  C 35.6027343749999 22.456875  35.736328125 22.4080769230768  35.841796875 22.3000240384615  C 35.9437500000001 22.1989423076922  36 22.0595192307691  36 21.8991826923077  L 36 15.206875  Z M 5.62851562499995 19.6684134615384  C 4.8585937499999 19.6684134615384  4.1941406250001 19.3965384615383  3.6457031249999 18.8527884615384  C 3.09726562499995 18.3090384615384  2.8230468750001 17.6537499999999  2.8230468750001 16.8869230769229  C 2.8230468750001 16.120096153846  3.09726562499995 15.4648076923077  3.6457031249999 14.9175721153845  C 4.1941406250001 14.3773076923076  4.85507812499995 14.1019471153847  5.6320312499999 14.1019471153847  C 6.4054687499999 14.1019471153847  7.06640625 14.3738221153845  7.6183593749999 14.9175721153845  C 8.1632812499999 15.4613221153847  8.44101562499995 16.116610576923  8.44101562499995 16.8869230769229  C 8.44101562499995 17.6537499999999  8.1667968750001 18.3090384615384  7.6183593749999 18.8527884615384  C 7.06289062500005 19.3965384615383  6.3984375 19.6684134615384  5.62851562499995 19.6684134615384  Z M 10.51171875 11.3065144230768  C 9.7804687499999 11.3030288461538  9.24257812500005 10.6233413461538  9.41835937500005 9.91925480769237  C 9.87890625 8.08584134615396  10.6312500000001 5.08475961538452  10.6312500000001 5.08475961538452  C 10.6593749999999 4.99413461538457  10.740234375 4.89305288461529  10.8773437500001 4.78151442307693  C 11.0179687500001 4.66997596153857  11.1375000000001 4.61769230769242  11.2464843750001 5  L 24.7464843750001 5  C 24.85546875 4.61769230769242  24.9750000000001 4.67694711538463  25.1156250000001 4.78151442307693  C 25.2562500000001 4.88956730769227  25.3406250000001 4.99064903846155  25.3617187500001 5.08475961538452  L 26.578125 9.91925480769237  C 26.75390625 10.6233413461538  26.2195312500001 11.3065144230768  25.48828125 11.3065144230768  L 10.51171875 11.3065144230768  Z M 30.3785156249999 19.6684134615384  C 29.6085937499999 19.6684134615384  28.9441406250001 19.3965384615383  28.3957031249999 18.8527884615384  C 27.8472656249999 18.3090384615384  27.5730468750001 17.6537499999999  27.5730468750001 16.8869230769229  C 27.5730468750001 16.120096153846  27.8472656249999 15.4648076923077  28.3957031249999 14.9175721153845  C 28.9441406250001 14.3773076923076  29.6050781249999 14.1019471153847  30.3820312499999 14.1019471153847  C 31.1554687499999 14.1019471153847  31.81640625 14.3738221153845  32.3683593749999 14.9175721153845  C 32.9132812499999 15.4613221153847  33.1910156249999 16.116610576923  33.1910156249999 16.8869230769229  C 33.1910156249999 17.6537499999999  32.9167968750001 18.3090384615384  32.3683593749999 18.8527884615384  C 31.8128906250001 19.3965384615383  31.1484375 19.6684134615384  30.3785156249999 19.6684134615384  Z " fill-rule="nonzero" fill="#128183" stroke="none" transform="matrix(1 0 0 1 19 219 )" />
  </g>
</svg>