<?xml version="1.0" encoding="utf-8"?>
<svg version="1.1" xmlns:xlink="http://www.w3.org/1999/xlink" width="36px" height="36px" xmlns="http://www.w3.org/2000/svg">
  <g transform="matrix(1 0 0 1 -306 -209 )">
    <path d="M 35.8723404379986 2.68085106382975  C 35.8723404379986 1.27021277842417  34.7297872589761 0.127659562001384  33.3191489361703 0.127659562001384  L 2.68085106382975 0.127659562001384  C 1.27021277842417 0.127659562001384  0.127659562001384 1.27021277842417  0.127659562001384 2.68085106382975  L 0.127659562001384 33.3191489361703  C 0.127659562001384 34.7297872215758  1.27021274102394 35.8723404379986  2.68085106382975 35.8723404379986  L 33.3191489361703 35.8723404379986  C 34.7297872215758 35.8723404379986  35.8723404379986 34.7297872589762  35.8723404379986 33.3191489361703  L 35.8723404379986 2.68085106382975  Z M 16.9595744556184 23  L 16.9595744556184 19.8765957446808  C 16.9595744556184 19.6468085106384  17.1446808261303 19.4617021401264  17.3744680975731 19.4617021401264  L 21.5042553191489 19.4617021401264  C 21.8872340425532 19.4617021401264  21.880851051363 19.1234042802527  21.880851051363 18.3191489237034  C 21.880851051363 17.5148935671543  19.8574468085107 16.8382978474069  19.8574468085107 14.0170212765957  C 19.8574468085107 11.1957447057845  21.951063842254 10.3659574592752  23.6936170337434 10.3659574592752  C 25.4361702252327 10.3659574592752  27.3319149060838 11.1957447057845  27.3319149060838 14.0170212765957  C 27.3319149060838 16.8382978474069  25.3212766082114 17.291489361702  25.3212766082114 18.3191489237034  C 25.3212766082114 19.3468084857047  25.3212766082114 19.4617021027261  25.6404255319149 19.4617021401264  L 29.7510638173205 19.4617021401264  C 29.980851051363 19.4617021401264  30.165957421875 19.6468085106384  30.1659574592753 19.8765957446808  L 30.1659574592753 23  L 16.9595744556184 23  Z M 14.2085106382978 19.0340425531914  C 14.2085106382978 19.7425531914894  13.6404255443816 20.3106382854055  12.9319149060838 20.3106382854055  L 5.47021275349066 20.3106382854055  C 4.76808510638303 20.3106382854055  4.19361702127665 19.7361702002993  4.19361702127665 19.0340425531914  C 4.19361702127665 18.3319149060838  4.76808510638303 17.7574468209775  5.47021275349066 17.7574468209775  L 12.9319149060838 17.7574468209775  C 13.6340425531914 17.7574468209775  14.2085106382978 18.3319149060838  14.2085106382978 19.0340425531914  Z M 12.9319149060838 16.0851063829788  L 5.47021275349066 16.0851063829788  C 4.76808510638303 16.0851063829788  4.19361702127665 15.5106382978722  4.19361702127665 14.8085106507646  C 4.19361702127665 14.106383003657  4.76808510638303 13.5319149185505  5.47021275349066 13.5319148811504  L 12.9319149060838 13.5319148811504  C 13.6369592710124 13.5319148811504  14.208510656998 14.1034662671358  14.208510656998 14.8085106320644  C 14.208510656998 15.5135549969933  13.6369592710124 16.0851063829788  12.9319149060838 16.0851063829788  Z M 12.9319149060838 11.859574480552  L 5.47021275349066 11.859574480552  C 4.76808510638303 11.859574480552  4.19361702127665 11.2851063954455  4.19361702127665 10.5829787109375  C 4.19361702127665 9.8808510264295  4.76808510638303 9.30638297872335  5.47021275349066 9.30638297872335  L 12.9319149060838 9.30638297872335  C 13.6369592710124 9.30638297872335  14.208510656998 9.87793436470903  14.208510656998 10.5829787296377  C 14.208510656998 11.2880230945663  13.6369592710124 11.859574480552  12.9319149060838 11.859574480552  Z M 31.4425531914893 26.9106383103391  C 31.4425531914893 27.6127659948471  30.8680851063829 28.1872340425532  30.1659574592753 28  L 16.9595744556184 28  C 16.2574468085107 28.1872340425532  15.6829787234043 27.6127659574467  15.6829787234043 26.9106383103391  C 15.6829787234043 26.2085106632314  16.2574468085107 25.6340425781249  16.9595744556184 25  L 30.1659574592753 25  C 30.8680851063829 25.6340425407248  31.4425531914893 26.2085106258311  31.4425531914893 26.9106383103391  Z " fill-rule="nonzero" fill="#128183" stroke="none" transform="matrix(1 0 0 1 306 209 )" />
  </g>
</svg>