<?xml version="1.0" encoding="utf-8"?>
<svg version="1.1" xmlns:xlink="http://www.w3.org/1999/xlink" width="32px" height="26px" xmlns="http://www.w3.org/2000/svg">
  <g transform="matrix(1 0 0 1 -1084 -1409 )">
    <path d="M 28.5219858045213 21.9574468085107  L 19.8047005368456 21.9574469984996  C 20.0490399144095 22.8215565863854  20.1803524379075 23.7330680688174  20.1815602726064 24.6751772938831  C 20.1815602726064 25.1404255319151  19.8014184507979 25.5205673869682  19.336170212766 25.5319148936171  L 0.958865259308482 25.5319148936171  C 0.493617021276577 25.5205673537234  0.113475166223452 25.1404255319151  0.113475166223452 24.6751772938831  C 0.113475166223452 20.2496453789895  2.99007091090425 16.4992907912235  6.9730496343085 15.1659574468085  C 5.90070920877656 14.263829787234  5.21985814494678 12.9134751662234  5.21985814494678 11.4042553191489  C 5.21985814494678 8.69219857047869  7.42695036569148 6.47943261303203  10.1446808510639 6.47943261303203  C 10.1674115043043 6.47943261303203  10.1901068333774 6.47958700743106  10.2127659574468 6.47988608239893  L 10.2127659574468 3.37588653590433  C 10.1446808510639 1.5205673869682  11.6539006981383 0.0113475398936771  13.5092198470744 0  L 28.5276595744681 0  C 30.3829787234042 0.0113475066489173  31.8921985704787 1.52056735372344  31.8297872340426 3.37588653590433  L 31.8297872340426 18.6326241023937  C 31.8865248005319 20.4879432513299  30.3773049534575 21.9971630984044  28.5219858045213 21.9574468085107  Z M 13.3219858045213 15.1659574468085  C 15.6879035592194 15.959096768722  17.6643332935416 17.6075036196701  18.8784084666299 19.744680851064  L 28.5219858045213 19.744680851064  C 29.1347517619681 19.7503546210107  29.6340425531914 19.2510638297872  29 18.6382978723404  L 29 3.37588653590433  C 29.6340425531914 2.76312057845735  29.1347517619681 2.26382978723404  28.5219858045213 2.38297872340422  L 13.5035461103723 2.38297872340422  C 12.8907801529256 2.26382978723404  12.3914893617022 2.76312057845735  12.4255319148937 3.37588653590433  L 12.4255415458657 7.03857927037302  C 13.9988423534598 7.86174000993697  15.075177293883 9.50880517950259  15.075177293883 11.4042553191489  C 15.0764903361478 12.8558702384378  14.4344571425769 14.2334366052257  13.3219858045213 15.1659574468085  Z M 26.7007092087766 10.8425531914895  L 26.7007092087766 12.3234042553192  C 26.7007092420213 12.7148936170213  26.3829787234042 13.0269503656916  25.9971631316489 13.1063829787236  L 18.3035461103723 13.1063829787236  C 18.1219858377659 13.0269503656916  17.9404255319149 12.9531914893616  17.8099290890957 12.8226950465425  C 17.6794326462766 12.6865248337767  17.6056737699469 12.5106382978724  17.6056737699469 12.3234042553192  L 17.6056737699469 10.8425531914895  C 17.6056737699469 10.0879432845745  18.2241134640957 9.46950355718081  18.9787234042553 9.46950355718081  L 20.329078025266 9.46950355718081  C 19.9375886635638 9.04964541223399  19.2907801529255 8.35177307180857  19.2907801529255 7.00141845079793  C 19.2907801529255 4.91347516622341  20.8737588763298 4.17021276595756  22.2297872340425 4.17021276595756  C 23.5914893617021 4.17021276595756  25.0496453789893 4.91347519946817  25.0496453789893 7.00141845079793  C 25.0496453789893 8.30638297872338  24.4312056515957 8.96453899601079  24.0624113364362 9.36170212765956  C 24.0283687832447 9.39574468085107  23.9943262300532 9.42978723404258  23.9602836768618 9.46950355718081  L 25.327659574468 9.46950355718081  C 26.0879432513298 9.46950355718081  26.7007092087766 10.0879432513298  26.7007092087766 10.8425531914895  Z M 18.6836879321809 14.1276595744682  L 25.6170212765958 14.1276595744682  C 26.1503546210106 14.0595744680852  26.5758865359043 14.4907801529257  26.5758865359043 15.0184397273936  C 26.5758865359043 15.5460993018617  26.1503546210106 15.9773049867022  25.6226950465425 15.8297872340427  L 18.6836879321809 15.8297872340427  C 18.1503545877659 15.9773049534574  17.7248226728723 15.5460992686171  17.724822706117 15.0184397273936  C 17.7248227393617 14.4907801861702  18.1560283909574 14.0595744680852  18.6836879321809 14.1276595744682  Z " fill-rule="nonzero" fill="#ffffff" stroke="none" transform="matrix(1 0 0 1 1084 1409 )" />
  </g>
</svg>