<?xml version="1.0" encoding="utf-8"?>
<svg version="1.1" xmlns:xlink="http://www.w3.org/1999/xlink" width="32px" height="32px" xmlns="http://www.w3.org/2000/svg">
  <g transform="matrix(1 0 0 1 -773 -1406 )">
    <path d="M 14.9754308116235 0.461503320385646  C 15.1422730617646 0.36718566177683  15.3030417938904 0.262150069481095  15.473099418067 0.173905868180555  C 15.7839190093384 0.0259986018429572  16.169764015006 0.0360020147120395  16.4705802237621 0.204987827307605  C 21.3811725054423 3.08096219759159  26.2928365683499 5.95550752623922  31.2034288500301 8.83112466646753  C 31.4770929945126 8.99689510502776  31.7003829356554 9.2551969001513  31.796129666254 9.56351563820567  C 31.9229583559799 9.97937082177305  31.8447175675483 10.4606052976301  31.5667662374495 10.7996487344024  C 31.328828467766 11.0936769346783  30.9522723237957 11.260519154466  30.5757161798253 11.2608764148752  C 29.9097762816044 11.2648063097288  29.2434790926208 11.2608764148752  28.5771819339907 11.2626627472741  C 28.5768246735815 16.3683211245964  28.5768246735815 21.473622211156  28.5771819339907 26.579280588478  C 28.8397708843769 26.5796378488872  29.1023598651167 26.579280588478  29.3649488458565 26.5796378488872  C 29.6882726728606 26.5828532229227  30.0183845083449 26.5560584190582  30.33313399447 26.6485897756215  C 31.0237251037472 26.8290080427225  31.5896311161068 27.4077755512239  31.7536152526216 28.1022965857082  C 31.8372150078966 28.4184751438233  31.8043467163705 28.7478724584894  31.8114920156131 29.07119625514  C 31.8225672097093 29.5692221219927  31.639648089391 30.068319800426  31.3070353703361 30.4395170079063  C 30.9390535672448 30.8578730446909  30.3902962062898 31.1101013521527  29.8326072744002 31.1118876541982  C 20.5794723162073 31.1122449146073  11.3263373580145 31.1118876541982  2.0732023998217 31.1122449146073  C 1.56410133887283 31.1154602886427  1.05857294272204 30.9121771428843  0.69166292085805 30.5595576587987  C 0.297243574311494 30.1872887004445  0.0668083339261898 29.6488919824139  0.0714527799515281 29.1062081394743  C 0.0785980488406608 28.7739527111821  0.043943455268959 28.4356237952279  0.127185950134958 28.1097991150066  C 0.255086421088095 27.5689015741123  0.621996442952081 27.0919542838715  1.10966166688007 26.8261499290963  C 1.40226079516623 26.6646666457987  1.73665981626664 26.579280588478  2.07105880701357 26.5796378488872  C 2.47262342244926 26.5789233280691  2.87454532864751 26.5799951092963  3.27646720449229 26.579280588478  C 3.27575268367411 21.473622211156  3.27753898571962 16.3676066037781  3.27539542326497 11.2619482264558  C 2.66018698879293 11.2630200076833  2.04497855432089 11.2619482264558  1.4297701198488 11.2626627472741  C 0.984262049144149 11.2894575511386  0.51767540182783 11.1033230567848  0.261874429568081 10.7278386940418  C 0.0242939506471203 10.3884379968604  -0.0332255519352884 9.93471284568591  0.0943176586087588 9.5427943523564  C 0.193279763242913 9.23876276956503  0.418713266840257 8.98689172251238  0.69059110927725 8.82469391839663  L 14.9754308116235 0.461503320385646  Z M 16.6156293764732 6.84473739595637  C 16.3480387196524 6.6861122262851  15.9872021854503 6.71433607178597  15.7464063021404 6.91118846947347  C 15.6060015954546 7.01872491498648  15.5299043694777 7.18270902114796  15.4552362154907 7.33776155637452  C 15.0390237715142 8.18519153327748  14.6181669118658 9.03047791737208  14.2033835398793 9.87862241509333  C 13.2084035874014 10.0279587230673  12.2119945629337 10.1669343881167  11.2170146104558 10.3144843636917  C 10.9390633107105 10.3505680292533  10.6896930865216 10.5467059061225  10.5946609070946 10.8110811889078  C 10.4849808991269 11.0936769346783  10.5639362083766 11.4337921526781  10.7836534847213 11.6417197444616  C 11.5028256999084 12.3430287874262  12.2237842474947 13.0425514979916  12.9429564930353 13.7442177710116  C 12.783974062955 14.6723893895633  12.6253488932838 15.6005609777615  12.4660092027944 16.528375335904  C 12.4402862105109 16.6816415387316  12.4024162429037 16.8381231459482  12.4342126924956 16.9935329415839  C 12.4838723750172 17.286489330279  12.7164511778572 17.5372885961044  13.0058349321078 17.6065977832477  C 13.1969711025426 17.6559002053602  13.4045414339172 17.6273190994505  13.5770999113109 17.5319296292607  C 14.4613280442402 17.0660575027628  15.3462707283412 16.6023289690727  16.2304988916239 16.1364568425745  C 17.1279458114575 16.6059016035172  18.0236063988921 17.0799908104852  18.9206960279631 17.5501500922462  C 19.1629209529094 17.6744779287549  19.4701679097363 17.6605446513856  19.6966732249145 17.5076356786137  C 19.9574758732552 17.3411506888817  20.0953797267239 17.0088952909427  20.031429506424 16.7062927497877  C 19.8624436938283 15.7195298777799  19.69310059047 14.7331242358275  19.5241147475207 13.7467186242288  C 20.2389998074451 13.0493395064716  20.9545993881878 12.3523176187698  21.6694844784656 11.6552957614217  C 21.830610501354 11.5048876722205  21.9245708995537 11.2858848863405  21.9174256003111 11.0650957984151  C 21.9124238938767 10.7764265649826  21.73021932473 10.4988325256463  21.4658440419447 10.3816499580269  C 21.3350854573652 10.3198433001817  21.1893217838359 10.3094826572571  21.0482025563318 10.2884040806455  C 20.1189591565528 10.1533583408032  19.1897157567738 10.0186698310165  18.2604723569948 9.88362409117417  C 17.8235385968158 8.99832414666412  17.3858903461719 8.11338146256321  16.9500283672202 7.22772428799749  C 16.8789328476777 7.07124271113457  16.7674665073109 6.92940893245873  16.6156293764732 6.84473739595637  Z M 8.25243877846231 22  C 8.11310585300379 22.2413823276374  7.97127210468153 22.2295926430763  7.83479729284937 22.2631754250674  C 7.55112976585139 22.3342709446097  7.32676804348137 22.5950735929505  7.30533217610707 22.8876727212366  C 7.29640057481896 23.075593517636  7.28389633908625 23.2763758405306  7.37071146839679 23.4503633595607  C 7.48753677560717 23.7025916670225  7.76120092008972 23.8687193963453  8.03915221983505 23.8572869418399  C 13.2316257264678 23.8569296814308  18.4244564631561 23.8572869418399  23.6169299697888 23.8572869418399  C 23.7362560998629 23.8558579002035  23.8562967811088 23.8633604295017  23.9752656811273 23.8483553405517  C 24.2192769384725 23.8144152677983  24.4368506523626 23.6407850091773  24.5275956461733 23.4121361315445  C 24.5933321988722 23.2588699287169  24.5815424839577 23.087740523313  24.5783271402757 22.9248281680254  C 24.5729681734322 22.6522358047703  24.3911208646946 22.3957203420457  24.1388925268794 22.2942573841945  C 23.9852690636427 22.2267344990967  23.8134251070671 22.24031054641  23.6501555217241 22  L 8.25243877846231 22  Z M 8.2538678504522 25.6361038809764  C 8.11489218540282 25.6371756622038  7.97341569748966 25.6271722796885  7.83694085530402 25.6600405712145  C 7.55363058871512 25.7300643095296  7.3281970547643 25.9894378858805  7.30568943651616 26.2816797537575  C 7.29532879359164 26.478889411854  7.28353907867717 26.6907469288449  7.38142940208394 26.8700933843652  C 7.50325638537532 27.1108892373215  7.76906074015051 27.2645127309117  8.03808043860772 27.2555811296236  C 13.3127246285256 27.2559383900327  18.5877260788527 27.256652910851  23.8623702687705 27.2552238692147  C 24.2207059497555 27.2645127309117  24.5533186384569 26.9658401149638  24.5758262870585 26.6075044339789  C 24.5822570351294 26.4320878733122  24.5969048636702 26.2480969414132  24.5275956461733 26.0826837632619  C 24.419344679842 25.8050897239257  24.1256737703285 25.6221706036074  23.8298592680069 25.6364611413856  C 18.6377430521368 25.6361038809764  13.4459840663224 25.6364611413856  8.2538678504522 25.6361038809764  Z " fill-rule="nonzero" fill="#ffffff" stroke="none" transform="matrix(1 0 0 1 773 1406 )" />
  </g>
</svg>