<?xml version="1.0" encoding="utf-8"?>
<svg version="1.1" xmlns:xlink="http://www.w3.org/1999/xlink" width="20px" height="24px" xmlns="http://www.w3.org/2000/svg">
  <g transform="matrix(1 0 0 1 -307 -2044 )">
    <path d="M 19.8518181818182 8.11439999999993  L 19.8790909090909 24  L 0 24  L 0 0  L 12.9572727272728 0  L 19.8518181818182 8.11439999999993  Z M 18 22  L 18 9.24000000000024  L 11.6727272727273 9.24000000000024  L 11.6725887747183 2  L 2 2  L 2 22  L 18 22  Z M 13.3090909090909 7.44000000000005  L 17.0386623028175 7.44005531418793  L 13.3090909090909 3.03501310025536  L 13.3090909090909 7.44000000000005  Z M 16.3636363636364 14  L 3.49090909090912 14  L 3.49090909090912 12  L 16.3636363636364 12  L 16.3636363636364 14  Z M 3.49090909090912 19  L 3.49090909090912 17  L 16.3636363636364 17  L 16.3636363636364 19  L 3.49090909090912 19  Z M 3.59999999999998 7.58039999999983  L 8.39999999999996 7.58039999999983  L 8.39999999999996 9.3467999999998  L 3.59999999999998 9.3467999999998  L 3.59999999999998 7.58039999999983  Z " fill-rule="nonzero" fill="#128183" stroke="none" transform="matrix(1 0 0 1 307 2044 )" />
  </g>
</svg>