<?xml version="1.0" encoding="utf-8"?>
<svg version="1.1" xmlns:xlink="http://www.w3.org/1999/xlink" width="21px" height="24px" xmlns="http://www.w3.org/2000/svg">
  <g transform="matrix(1 0 0 1 -502 -2044 )">
    <path d="M 15.2426293778853 23.6741999733665  C 13.9105575139827 23.6741999733665  12.1907020019531 22.6577527521306  10.9825415804776 21.8048582919034  C 9.36465783358486 20.6628507634941  7.62162255082569 19.0827311612215  6.07447038907139 17.3561745117186  L 6.06881852916368 17.3498242808946  L 5.57765609352811 16.7870512872869  C 4.07023381014741 15.0149527787639  2.69096780672938 13.01827923473  1.69380979780719 11.164963050426  C 0.949315706010267 9.7811558149856  0.0617844926313751 7.81127322443172  0.0617844926313751 6.28536232244323  C 0.0617844926313751 4.6523967507103  1.0812637406782 2.91935356001432  1.51941327126239 2.25015274325278  C 1.8614098022461 1.72768878728675  3.05619178910692 0.023398854758625  4.07140233598184 0.023398854758625  C 4.48816068004263 0.023398854758625  4.93708925670272 0.335923322088092  5.52709946511013 1.03687534623577  C 6.04897745361333 1.65652795632104  6.54977427312673 2.4269783203124  6.87786774236505 2.96405055042601  C 7.31861663818354 3.68508896484354  7.72614602383706 4.44008615944585  8.0257656072443 5.09001823508515  C 8.51058462690868 6.14235929509914  8.56665002663358 6.59385316938915  8.56665002663358 6.84167607421864  C 8.56665002663358 7.34184604048278  8.33847744806457 7.77584270241482  7.88871420343567 8.13134712357964  C 7.5925763571999 8.36527033913353  7.23691521439989 8.54141455078116  6.89315396284626 8.71183537819593  C 6.6611896528764 8.82682105823847  6.29091000532674 9.01018764204537  6.14963760431459 9.13918199573868  C 6.19902570689814 9.37817450284092  6.41439218195137 9.95566478160526  6.99638963844998 10.9345011274859  C 7.5388241455078 11.84675534446  8.24027355069246 12.8351306729403  8.87385307284269 13.5804253817473  C 9.52460278431282 14.3061787819602  10.3873087779652 15.1098520685368  11.1839811301491 15.7310036665481  C 12.0381497214577 16.3975335671162  12.5422851895419 16.6443753196022  12.7512367043235 16.7009006303265  C 12.8636536576704 16.5391466708095  13.0238371049361 16.1150160511361  13.1241633977716 15.8495051580253  C 13.272828515625 15.4556267578123  13.4267400679154 15.0481757279829  13.631041319691 14.7089420987215  C 13.9415114934748 14.19361875  14.3202331354315 13.9325230557529  14.7570948919123 13.9325230557529  C 14.9734629638672 13.9325230557529  15.3675185302734 13.9966522904829  16.2861945157138 14.5519848899148  C 16.8536688520952 14.8950886363637  17.5128605579723 15.3619811612216  18.1423383311878 15.8668116210938  C 18.6112033913352 16.2426477006393  19.2837973721591 16.8162406427555  19.8249202647816 17.413817285156  C 20.4366316539418 18.0898861949572  20.709518231756 18.6040103426844  20.709518231756 19.0814775213066  C 20.709518231756 20.2442800514914  19.2217939586292 21.6129611772017  18.7657111383612 22.0044957208806  C 18.1811382035689 22.5067369762073  16.6680640835849 23.6741999733665  15.2426293778853 23.6741999733665  Z M 14.1835871803977 11.3480571200284  C 13.9708439109109 11.3480571200284  13.7824250743519 11.1735754261363  13.7441260353782 10.9250711825282  C 13.6347615534002 10.2149344815343  13.2758094659979 9.59773476562486  12.7331126453746 9.18755830078112  C 12.1828323153409 8.77144042968757  11.5100952692205 8.61690884232939  10.8388128795277 8.75255324041177  C 10.5957833462802 8.8017198952416  10.3641051902077 8.61570966796853  10.3213466807972 8.33728023792628  C 10.2784927867543 8.05904161044009  10.4407032681551 7.7936124822445  10.6837328014028 7.74458208451688  C 11.580850694691 7.56323232421846  12.4835250399503 7.77235416370741  13.2252766779119 8.3333283558236  C 13.9748979791814 8.89999868607947  14.4717361150568 9.75730834517026  14.6241691472834 10.7473734641335  C 14.6669992009943 11.0258028675426  14.5047648792614 11.2912047496447  14.2617591863458 11.3402896395596  C 14.2355508078835 11.3456042258522  14.2093662930575 11.3480571200284  14.1835871803977 11.3480571200284  Z M 16.8733907725941 10.0264713334516  C 16.6606475031073 10.0264713334516  16.4720855779474 9.85193512073874  16.4339296275746 9.60359440696016  C 16.2217825528231 8.22523801491479  15.5264380903764 7.02877649147717  14.4761240644975 6.23475119850855  C 13.4180834639116 5.43472998046855  12.1263376731179 5.13735886896302  10.8388367431641 5.3974734108665  C 10.5958072099166 5.44653105468751  10.364295982777 5.26054807350829  10.3213705444336 4.98230944602278  C 10.2785166503906 4.70401629971593  10.4407271317915 4.43839639559656  10.6837566650391 4.38936599786939  C 12.1971169622249 4.08384588068202  13.7188000521573 4.43558919566772  14.9682881203391 5.38054852627829  C 16.2256935557972 6.33104046519884  17.058733297452 7.76780270774134  17.3138535145153 9.42586944247159  C 17.3568266568271 9.70429884588066  17.1944492464933 9.96978249289759  16.9514196899414 10.018812890625  C 16.9252351751155 10.0239639470883  16.8991698852539 10.0264713334516  16.8733907725941 10.0264713334516  Z M 20.4645332552823 9.64499360795435  C 20.2517661454634 9.64499360795435  20.0630611317027 9.47023937322456  20.02490518133 9.22192590553959  C 19.6629006225586 6.86993874289783  18.4774668423739 4.82870451882127  16.6868320412376 3.47520399502855  C 14.8886375710227 2.11562578124995  12.6945274525036 1.61003221768487  10.5088354880592 2.05152379261335  C 10.2659251797762 2.10052694424712  10.0342470237038 1.91470746626419  9.99148851429334 1.63627806285513  C 9.94870616455074 1.35803943536916  10.1108927823153 1.09252854225838  10.3539461791992 1.04352539062484  C 12.765425966575 0.556328426846676  15.1893302956321 1.11651226917616  17.1791391623757 2.62078327414747  C 19.1767222844905 4.13107750355084  20.4998990478516 6.4123126331674  20.9049959738991 9.04425545987215  C 20.9479452525746 9.32249408735788  20.7855917058771 9.58795046164778  20.5425621493252 9.63695361328132  C 20.5163537941672 9.64243170276995  20.4902885276101 9.64499360795435  20.4645332552823 9.64499360795435  Z " fill-rule="nonzero" fill="#128183" stroke="none" transform="matrix(1 0 0 1 502 2044 )" />
  </g>
</svg>