<?xml version="1.0" encoding="utf-8"?>
<svg version="1.1" xmlns:xlink="http://www.w3.org/1999/xlink" width="19px" height="32px" xmlns="http://www.w3.org/2000/svg">
  <g transform="matrix(1 0 0 1 -1527 -2213 )">
    <path d="M 17.1825396949405 17.2460317336313  L 17.2476190476191 17.1841269717261  L 18.3698412574402 16.0619047619052  L 2.89999999999986 0.588888876487999  C 2.27890850601329 -0.0262352057729913  1.27823435112964 -0.0262352057729913  0.657142857142617 0.588888876487999  C 0.358398032048171 0.88592876518851  0.190420869579384 1.28982596869037  0.190420869579384 1.71111110491074  C 0.190420869579384 2.13239624113157  0.358398032048171 2.53629344463252  0.657142857142617 2.83333333333394  L 13.8793650669638 16.0587301711307  L 0.657142857142617 29.2761904761906  C 0.358493535265552 29.5729585726917  0.1905550440149 29.9765932520208  0.1905550440149 30.3976190476187  C 0.1905550440149 30.818644843217  0.358493535265552 31.2222795225462  0.657142857142617 31.5190476190473  C 1.27619047619078 32.138095238095  2.28888887648804 32.1317460193445  2.89999999999986 31.520634933036  L 17.1825396949405 17.2460317336313  Z " fill-rule="nonzero" fill="#bcbcbc" stroke="none" transform="matrix(1 0 0 1 1527 2213 )" />
  </g>
</svg>