<?xml version="1.0" encoding="utf-8"?>
<svg version="1.1" xmlns:xlink="http://www.w3.org/1999/xlink" width="19px" height="32px" xmlns="http://www.w3.org/2000/svg">
  <g transform="matrix(1 0 0 1 -370 -2213 )">
    <path d="M 1.81746030505951 17.2460317336313  L 1.75238095238092 17.1841269717261  L 0.630158742559842 16.0619047619052  L 16.1000000000001 0.588888876487999  C 16.7210914939867 -0.0262352057729913  17.7217656488704 -0.0262352057729913  18.3428571428574 0.588888876487999  C 18.6416019679518 0.88592876518851  18.8095791304206 1.28982596869037  18.8095791304206 1.71111110491074  C 18.8095791304206 2.13239624113157  18.6416019679518 2.53629344463252  18.3428571428574 2.83333333333394  L 5.12063493303617 16.0587301711307  L 18.3428571428574 29.2761904761906  C 18.6415064647344 29.5729585726917  18.8094449559851 29.9765932520208  18.8094449559851 30.3976190476187  C 18.8094449559851 30.818644843217  18.6415064647344 31.2222795225462  18.3428571428574 31.5190476190473  C 17.7238095238092 32.138095238095  16.711111123512 32.1317460193445  16.1000000000001 31.520634933036  L 1.81746030505951 17.2460317336313  Z " fill-rule="nonzero" fill="#bcbcbc" stroke="none" transform="matrix(1 0 0 1 370 2213 )" />
  </g>
</svg>