<?xml version="1.0" encoding="utf-8"?>
<svg version="1.1" xmlns:xlink="http://www.w3.org/1999/xlink" width="32px" height="31px" xmlns="http://www.w3.org/2000/svg">
  <g transform="matrix(1 0 0 1 -877 -1407 )">
    <path d="M 0 0.0116279069768552  L 0 24.2703488372092  L 15 30.1133720930231  L 15 5.8582848837209  L 0 0.0116279069768552  Z M 4.41206395348831 8.77979651162786  C 4.03052325581393 8.60537790697663  3.85973837209303 8.15479651162786  4.03415697674416 7.76962209302314  C 4.20857558139539 7.38444767441865  4.66279069767438 7.21729651162786  5.04433139534888 7.3917151162791  L 11.5305232558139 10.3422965116279  C 11.9156976744187 10.5167151162791  12.0828488372093 10.9709302325582  11.9084302325581 11.3524709302326  C 11.78125 11.6322674418604  11.5014534883721 11.7994186046512  11.2143895348837 11.7994186046512  C 11.109011627907 11.7994186046512  11 11.7776162790697  10.8982558139535 11.7303779069766  L 4.41206395348831 8.77979651162786  Z M 4.41206395348831 15.2732558139535  C 4.03052325581393 15.0988372093022  3.85973837209303 14.6482558139535  4.03415697674416 14.2630813953488  C 4.20857558139539 13.8779069767443  4.66279069767438 13.7107558139535  5.04433139534888 13.8851744186047  L 11.5305232558139 16.8357558139535  C 11.9156976744187 17.0101744186047  12.0828488372093 17.4643895348836  11.9084302325581 17.8459302325582  C 11.78125 18.1257267441861  11.5014534883721 18.2928779069766  11.2143895348837 18.2928779069766  C 11.109011627907 18.2928779069766  11 18.2710755813953  10.8982558139535 18.2238372093022  L 4.41206395348831 15.2732558139535  Z M 4.41206395348831 21.7667151162791  C 4.03052325581393 21.5922965116279  3.85973837209303 21.1417151162791  4.03415697674416 20.7565406976744  C 4.20857558139539 20.3713662790697  4.66279069767438 20.2042151162791  5.04433139534888 20.3786337209301  L 11.5305232558139 23.3292151162791  C 11.9156976744187 23.5036337209301  12.0828488372093 23.9578488372092  11.9084302325581 24.3393895348836  C 11.78125 24.6191860465117  11.5014534883721 24.7863372093022  11.2143895348837 24.7863372093022  C 11.109011627907 24.7863372093022  11 24.7645348837209  10.8982558139535 24.7172965116279  L 4.41206395348831 21.7667151162791  Z M 32 0.0116279069768552  L 17 5.8582848837209  L 17 30.1133720930231  L 32 24.2703488372092  L 32 0.0116279069768552  Z M 27.9767441860465 20.7565406976744  C 28.1547965116279 21.1417151162791  27.984011627907 21.5922965116279  27.5988372093024 21.7667151162791  L 21.1126453488372 24.7172965116279  C 21.0109011627907 24.7645348837209  20.9018895348837 24.7863372093022  20.796511627907 24.7863372093022  C 20.5058139534883 24.7863372093022  20.2296511627907 24.6191860465117  20.1024709302326 24.3393895348836  C 19.9280523255813 23.9542151162791  20.0988372093024 23.5036337209301  20.4803779069767 23.3292151162791  L 26.9665697674419 20.3786337209301  C 27.3517441860465 20.2042151162791  27.8023255813954 20.375  27.9767441860465 20.7565406976744  Z M 27.9767441860465 14.2630813953488  C 28.1547965116279 14.6482558139535  27.984011627907 15.0988372093022  27.5988372093024 15.2732558139535  L 21.1126453488372 18.2238372093022  C 21.0109011627907 18.2710755813953  20.9018895348837 18.2928779069766  20.796511627907 18.2928779069766  C 20.5058139534883 18.2928779069766  20.2296511627907 18.1257267441861  20.1024709302326 17.8459302325582  C 19.9280523255813 17.4607558139535  20.0988372093024 17.0101744186047  20.4803779069767 16.8357558139535  L 26.9665697674419 13.8851744186047  C 27.3517441860465 13.7107558139535  27.8023255813954 13.8815406976744  27.9767441860465 14.2630813953488  Z M 27.9767441860465 7.76962209302314  C 28.1547965116279 8.15479651162786  27.984011627907 8.60537790697663  27.5988372093024 8.77979651162786  L 21.1126453488372 11.7303779069766  C 21.0109011627907 11.7776162790697  20.9018895348837 11.7994186046512  20.796511627907 11.7994186046512  C 20.5058139534883 11.7994186046512  20.2296511627907 11.6322674418604  20.1024709302326 11.3524709302326  C 19.9280523255813 10.9672965116279  20.0988372093024 10.5167151162791  20.4803779069767 10.3422965116279  L 26.9665697674419 7.3917151162791  C 27.3517441860465 7.21729651162786  27.8023255813954 7.38808139534876  27.9767441860465 7.76962209302314  Z " fill-rule="nonzero" fill="#ffffff" stroke="none" transform="matrix(1 0 0 1 877 1407 )" />
  </g>
</svg>