<?xml version="1.0" encoding="utf-8"?>
<svg version="1.1" xmlns:xlink="http://www.w3.org/1999/xlink" width="27px" height="36px" xmlns="http://www.w3.org/2000/svg">
  <g transform="matrix(1 0 0 1 -173 0 )">
    <path d="M 22.5671473880599 27.9850221548507  L 22.5671473880599 26.7066663596082  C 24.4925169193098 26.2062941697761  25.9253500466418 24.4678645872201  25.9253500466418 22.3880177238806  C 25.9253500466418 19.9186193563433  23.9171448694029 17.9104141791044  21.4477465018659 17.9104141791044  C 18.9783481343285 17.9104141791044  16.9701429570896 19.9186193563433  16.9701429570896 22.3880177238806  C 16.9701429570896 24.4678645872201  18.4029760844217 26.2051747318096  20.3283456156718 26.7066663596082  L 20.3283456156718 27.9850221548507  C 20.3283456156718 31.0712104127799  17.8175294426307 33.582026585821  14.7313411847015 33.582026585821  C 13.231343983209 33.582026585821  11.8264958955225 32.9999381180037  10.7731396455224 31.9365072761193  C 9.71771315969912 30.8933224943773  9.12699081270583 29.468971477768  9.13432835820899 27.9850221548507  L 9.13432835820899 23.1962251749068  C 9.56754490438442 22.9432405900186  9.91008155317175 22.5548084538246  10.0947827308769 22.0824212686567  C 11.4025333846397 21.7386179881672  12.594974764275 21.0523652688377  13.5492538362873 20.094365310168  C 15.0299063350483 18.6312510528428  15.8593921381989 16.633787925176  15.7611940298508 14.5522115205225  L 15.7611940298508 2.23880177238811  L 15.8507420708956 2.23880177238811  C 15.8507420708956 1.62057373399605  15.3495692230936 1.11940088619406  14.7313411847015 1.11940088619406  C 14.7313411847015 1.11940088619406  14.7313411847015 1.11940088619406  14.7313411847015 1.25373134328348  L 12.1813459771455 1.25373134328348  C 11.7929138409515 0.45335736940288  11.0787361007464 0  10.2537376399255 0  C 9.01903845615686 0  8.01493586753742 1.00410258861945  8.01493586753742 2.23880177238811  C 8.01493586753742 1.00410258861945  7.01083327891797 0  5.7761340951493 0  C 4.95113563432844 0  4.23695785914182 0.45335736940288  3.84852575792911 1.25373134328348  L 1.29853055037307 1.25373134328348  C 0.680302511981012 1.11940088619406  0.179129664179015 1.62057373399605  0.179104477611816 2.23880177238811  L 0.179104477611816 14.5522115205225  C 0.166816010258884 18.0835656979549  2.53121844329075 21.1815897895021  5.94068601912321 22.1014510844217  C 6.1276259678171 22.5648830457089  6.46680444263052 22.9465987639925  6.98507462686567 23.1962251749068  L 6.98507462686567 27.9850221548507  C 6.89553498134336 30.0872570079291  7.71269762126866 32.0562831856343  9.19030679804118 33.5193401236008  C 10.6527887018982 35.0002497031361  12.6500276974435 35.8298099854212  14.7313411847015 35.8208283582088  C 19.0522285914181 35.8208283582088  22.5671473880599 32.3059095615673  22.5671473880599 27.9850221548507  Z M 19.2089447294777 22.3880177238806  C 19.2089447294777 21.153318540112  20.2130473180972 20.1492159514925  21.4477465018659 20.1492159514925  C 22.6824456856345 20.1492159514925  23.6865482742537 21.153318540112  23.6865482742537 22.3880177238806  C 23.6865482742537 23.6227169076493  22.6824456856345 24.6268194962688  21.4477465018659 24.6268194962688  C 20.2130473180972 24.6268194962688  19.2089447294777 23.6227169076493  19.2089447294777 22.3880177238806  Z M 8.01493586753742 2.23880177238811  C 8.01493586753742 3.47350095615678  9.01903845615686 4.47760354477623  10.2537376399255 4.47760354477623  C 11.0787361007464 4.47760354477623  11.7929138759328 4.02424617537309  12.1813459771455 3.35820265858217  L 13.6119402985074 3.35820265858217  L 13.6119402985074 14.5522115205225  C 13.6119402985074 16.052208722015  13.0298518306904 17.4570568097015  11.9664209888061 18.5115324626865  C 11.3488451294232 19.1371642912426  10.5880855907305 19.6028413403081  9.75000724113821 19.8682463269589  C 9.32818978883716 19.3407781893337  8.69032105733916 19.032543557917  8.01493586753742 19.0298150652985  C 7.32426552005595 19.0298150652985  6.70299801772396 19.3544413362872  6.2910584888061 19.8581717350745  C 3.98040657723107 19.1243137794714  2.41266200723265 16.976594326224  3 14.5522115205225  L 3 3.35820265858217  L 3.84852575792911 3.35820265858217  C 4.23695785914182 4.02424617537309  4.95113563432844 4.47760354477623  5.7761340951493 4.47760354477623  C 7.01083327891797 4.47760354477623  8.01493586753742 3.47350095615678  8.01493586753742 2.23880177238811  Z M 10.2503794309701 2.23992117537301  L 10.2537376399255 3.35820265858217  L 10.2503794309701 2.23992117537301  Z M 20.3283456156718 22.3880177238806  C 20.3283456156718 23.0148822061568  20.8208820195896 23.5074186100747  21.4477465018659 23.5074186100747  C 22.0746109841418 23.5074186100747  22.5671473880599 23.0148822061568  22.5671473880599 22.3880177238806  C 22.5671473880599 21.7611532416044  22.0746109841418 21.2686168376866  21.4477465018659 21.2686168376866  C 20.8208820195896 21.2686168376866  20.3283456156718 21.7611532416044  20.3283456156718 22.3880177238806  Z " fill-rule="nonzero" fill="#128183" stroke="none" transform="matrix(1 0 0 1 173 0 )" />
  </g>
</svg>