<?xml version="1.0" encoding="utf-8"?>
<svg version="1.1" xmlns:xlink="http://www.w3.org/1999/xlink" width="33px" height="36px" xmlns="http://www.w3.org/2000/svg">
  <g transform="matrix(1 0 0 1 -309 -105 )">
    <path d="M 22.1770114801416 30.7910714146204  L 22.1824301993534 30.7910714146204  C 23.4919539947661 31.519642843192  24.7924466056035 31.8874999720983  26.0821018203509 31.8875000139508  C 27.3717569927648 31.8875000139508  28.6722496036023 31.5196428850447  29.9817733990147 30.7910714146204  L 29.9817733990147 35.8928571428572  L 26.4379310344828 34.0428571289061  C 26.2495830222585 33.9445773148157  26.0247502268133 33.9425808069824  25.834646948122 34.0374999860491  L 22.1770114801416 35.8875000000001  L 22.1770114801416 30.7910714146204  Z M 1.87848931265384 0.178571442522212  L 27.1658456627155 0.178571442522212  C 28.1634042988793 0.178571465636907  28.9720853483871 0.97806295776391  29 1.9642857003347  L 29 14.4642857142858  L 23.5533661599447 14.4642857142858  C 19.7035442837727 14.4642827512004  16.5299295321151 17.4486866560605  16.3374384236454 21.2499999860492  L 16 21.6071428710936  L 16 34  L 1.87848931265384 34  C 0.880930676490285 34.1071428200773  0.0722496269825115 33.3076513279503  0 32.3214285853795  L 0 1.9642857003347  C 0.0722496269825115 0.97806295776391  0.880930676490285 0.178571465636907  1.87848931265384 0.178571442522212  Z M 19.5796387661639 24.4142857282366  C 19.5796387661639 20.8874999999999  22.4876847290641 18.0357143136162  26.0821018203509 18.0357142717635  C 29.676518911638 18.0357142717635  32.5845648745382 20.8874999999999  32.5845648745382 24.4142857282366  C 32.5845648745382 27.9392857282367  29.676518911638 30.7910714564732  26.0821018203509 30.7910714146204  C 22.4876847290641 30.791071372768  19.5796387661639 27.939285686384  19.5796387661639 24.4142857282366  Z M 27.4602627116687 22.5517857003349  L 26.0821018203509 20.5839285853794  L 24.7039408866997 22.5517857003349  L 22.3738916256159 23.2303571568081  L 23.8604269435036 25.1232142717634  L 23.7954023129619 27.5089285714286  L 26.0821018203509 26.7125000139509  L 28.3760262584668 27.5089285714286  L 28.3110016279249 25.1232142717634  L 29.7975369458128 23.2303571568081  L 27.4602627116687 22.5517857003349  Z M 13.6190476331588 12.6785714146205  L 6.39408866995084 12.6785714146205  C 5.95789565126843 12.6784276460628  5.58393342347735 12.9865215386548  5.50541871921192 13.4107142996651  L 5.49096881542485 13.5714285853794  L 5.49096881542485 14.4642857142858  C 5.49082339061801 14.8955219809632  5.8024585705534 15.2652346332949  6.23152709359619 15.3428571428572  L 6.39408866995084 15.3571428431919  L 13.6190476331588 15.3571428431919  C 14.0552406385337 15.3572866154441  14.4292028615819 15.0491927443716  14.5077175838977 14.625  L 14.5221674876848 14.4642857142858  L 14.5221674876848 13.5714285853794  C 14.5221674876848 13.0783171674542  14.117826956083 12.6785714146205  13.6190476331588 12.6785714146205  Z M 19.0377668449815 5.53571429966513  C 19.0377668449815 5.53571429966513  19.0377668449815 5.53571429966513  19.0377668449815 6  L 6.39408866995084 6  C 5.95789566457598 5.53557052741292  5.58393344152778 5.8436643984854  5.50541871921192 6.26785714285725  L 5.49096881542485 6.4285714285715  L 5.49096881542485 7.32142855747762  C 5.49082339061801 7.75266482415503  5.8024585705534 8.12237747648678  6.23152709359619 8.19999998604905  L 6.39408866995084 8.21428572823672  L 19.0377668449815 8.21428572823672  C 19.4739598636637 8.21442949679448  19.8479220914548 7.90633560420244  19.9264367957204 7.48214284319187  L 19.9408866995075 7.32142855747762  L 19.9408866995075 6.4285714285715  C 19.9408866995075 5.93546005249877  19.5365461679057 5.53571429966513  19.0377668449815 5.53571429966513  Z " fill-rule="nonzero" fill="#128183" stroke="none" transform="matrix(1 0 0 1 309 105 )" />
  </g>
</svg>