<?xml version="1.0" encoding="utf-8"?>
<svg version="1.1" xmlns:xlink="http://www.w3.org/1999/xlink" width="36px" height="35px" xmlns="http://www.w3.org/2000/svg">
  <g transform="matrix(1 0 0 1 -166 -107 )">
    <path d="M 5.90926829268292 6.38867033831638  C 2.75082990106756 6.38867033831638  0.18603048793247 8.95134334788424  0.171219512195222 12.1164437450826  L 10.6200000000001 12.1164437450826  L 35.9846341463415 12.2177812745869  L 35.9846341463415 12.1450826121164  C 35.9846341463415 8.96616837136119  33.4163414634147 6.38867033831638  30.248780487805 6.38867033831638  L 26.119756097561 6.38867033831638  L 26.119756097561 4.44343036978763  C 26.119756097561 2.08623131392594  24.21 0.169630212431259  21.8612195121952 0.220298977183377  L 14.2946341463415 0.220298977183377  C 11.9458536585367 0.169630212431259  10.0360975609757 2.08623131392594  10.0360975609757 4.44343036978763  L 10.0360975609757 6.38867033831638  L 5.90926829268292 6.38867033831638  Z M 22.8292682926829 14.7600314712824  L 13.3902439024391 14.7600314712824  L 13.3902439024391 17.7737214791503  C 13.2541463414634 18.4390243902441  13.7919512195122 18.9809598741148  14.4570731707316 18.9457120377655  L 21.6987804878048 18.9457120377655  C 22.361707317073 18.9809598741148  22.9017073170731 18.4390243902441  22.8292682926829 17.7737214791503  L 22.8292682926829 14.7600314712824  Z M 30.2465853658538 34  C 33.4141463414635 34.2190401258851  35.9824390243903 31.6415420928403  36 28.4604248623132  L 36 15  L 25.4634146341465 15  L 25.4634146341465 17.7737214791503  C 25.5358536585366 19.8974036191976  23.8148780487806 21.6245476003148  21.6987804878048 21.8095987411486  L 14.4570731707316 21.8095987411486  C 12.3409756097561 21.6245476003148  10.6200000000001 19.8974036191976  10.7560975609755 17.7737214791503  L 10.7560975609755 15  L 0.219512195122007 15  L 0.219512195122007 28.4604248623132  C 0.171219512195222 31.6393391030684  2.73951219512202 34.2190401258851  5.90926829268292 34  L 30.2465853658538 34  Z M 0.171219512195222 12.1423361773863  L 0.171283427133972 12.1176317802238  C 0.17124509231283 12.1258625119126  0.171223989069262 12.1340973224377  0.171219512195222 12.1423361773863  Z M 23.4834146341465 4.4412273800158  L 23.4834146341465 7  L 12.6724390243902 7  L 12.6724390243902 4.4412273800158  C 12.6724390243902 3.5424075531079  13.4012195121952 2.81101494885918  14.2968292682927 2.86388670338313  L 21.859024390244 2.86388670338313  C 22.7546341463415 2.81101494885918  23.4834146341465 3.5424075531079  23.4834146341465 4.4412273800158  Z " fill-rule="nonzero" fill="#128183" stroke="none" transform="matrix(1 0 0 1 166 107 )" />
  </g>
</svg>