<?xml version="1.0" encoding="utf-8"?>
<svg version="1.1" xmlns:xlink="http://www.w3.org/1999/xlink" width="15px" height="32px" xmlns="http://www.w3.org/2000/svg">
  <g transform="matrix(1 0 0 1 -250 -104 )">
    <path d="M 13.5651629170583 17.2460317336308  L 13.6165413533835 17.1841269717263  L 14.5025062558741 16.0619047619048  L 2.28947368421051 0.588888876487999  C 1.7991382942212 -0.0262352057727639  1.00913238247059 -0.0262352057727639  0.518796992481193 0.588888876487999  C 0.282945814774782 0.885928765188737  0.150332265457588 1.28982596869037  0.150332265457588 1.71111110491074  C 0.150332265457588 2.13239624113112  0.282945814774782 2.53629344463275  0.518796992481193 2.83333333333326  L 10.9573934739192 16.0587301711309  L 0.518796992481193 29.2761904761906  C 0.283021212051482 29.572958572692  0.150438192643432 29.9765932520208  0.150438192643432 30.3976190476189  C 0.150438192643432 30.8186448432173  0.283021212051482 31.2222795225462  0.518796992481193 31.5190476190476  C 1.00751879699245 32.1380952380953  1.8070175340696 32.1317460193452  2.28947368421051 31.5206349330358  L 13.5651629170583 17.2460317336308  Z " fill-rule="nonzero" fill="#ffffff" stroke="none" transform="matrix(1 0 0 1 250 104 )" />
  </g>
</svg>