<?xml version="1.0" encoding="utf-8"?>
<svg version="1.1" xmlns:xlink="http://www.w3.org/1999/xlink" width="15px" height="31px" xmlns="http://www.w3.org/2000/svg">
  <g transform="matrix(1 0 0 1 -11 -97 )">
    <path d="M 1.43483708294172 16.7070932419549  L 1.38345864661651 16.6471230038599  L 0.497493744125923 15.5599702380952  L 12.7105263157895 0.570486099097749  C 13.2008617057788 -0.0254153555923651  13.9908676175294 -0.0254153555923651  14.4812030075188 0.570486099097749  C 14.7170541852252 0.858243491276589  14.8496677345424 1.24951890716879  14.8496677345424 1.65763888288228  C 14.8496677345424 2.06575885859577  14.7170541852252 2.45703427448797  14.4812030075188 2.74479166666659  L 4.04260652608083 15.5568948532831  L 14.4812030075188 28.3613095238096  C 14.7169787879485 28.6488036172953  14.8495618073566 29.0398247128952  14.8495618073566 29.4476934523809  C 14.8495618073566 29.8555621918667  14.7169787879485 30.2465832874666  14.4812030075188 30.5340773809523  C 13.9924812030076 31.1337797619048  13.1929824659304 31.1276289562407  12.7105263157895 30.5356150913784  L 1.43483708294172 16.7070932419549  Z " fill-rule="nonzero" fill="#ffffff" stroke="none" transform="matrix(1 0 0 1 11 97 )" />
  </g>
</svg>