<?xml version="1.0" encoding="utf-8"?>
<svg version="1.1" xmlns:xlink="http://www.w3.org/1999/xlink" width="15px" height="31px" xmlns="http://www.w3.org/2000/svg">
  <g transform="matrix(1 0 0 1 -249 -97 )">
    <path d="M 13.5651629170583 16.7070932419549  L 13.6165413533835 16.6471230038599  L 14.5025062558741 15.5599702380952  L 2.28947368421051 0.570486099097749  C 1.7991382942212 -0.0254153555923651  1.00913238247059 -0.0254153555923651  0.518796992481193 0.570486099097749  C 0.282945814774782 0.858243491276589  0.150332265457588 1.24951890716879  0.150332265457588 1.65763888288228  C 0.150332265457588 2.06575885859577  0.282945814774782 2.45703427448797  0.518796992481193 2.74479166666659  L 10.9573934739192 15.5568948532831  L 0.518796992481193 28.3613095238096  C 0.283021212051482 28.6488036172953  0.150438192643432 29.0398247128952  0.150438192643432 29.4476934523809  C 0.150438192643432 29.8555621918667  0.283021212051482 30.2465832874666  0.518796992481193 30.5340773809523  C 1.00751879699245 31.1337797619048  1.8070175340696 31.1276289562407  2.28947368421051 30.5356150913784  L 13.5651629170583 16.7070932419549  Z " fill-rule="nonzero" fill="#ffffff" stroke="none" transform="matrix(1 0 0 1 249 97 )" />
  </g>
</svg>