<?xml version="1.0" encoding="utf-8"?>
<svg version="1.1" xmlns:xlink="http://www.w3.org/1999/xlink" width="20px" height="32px" xmlns="http://www.w3.org/2000/svg">
  <g transform="matrix(1 0 0 1 -344 -84 )">
    <path d="M 18.086883889411 17.2460317336308  L 18.155388471178 17.1841269717263  L 19.3366750078321 16.0619047619048  L 3.05263157894734 0.588888876487999  C 2.3988510589616 -0.0262352057727639  1.34550984329412 -0.0262352057727639  0.691729323308257 0.588888876487999  C 0.377261086366377 0.885928765188737  0.200443020610117 1.28982596869037  0.200443020610117 1.71111110491074  C 0.200443020610117 2.13239624113112  0.377261086366377 2.53629344463275  0.691729323308257 2.83333333333326  L 14.6098579652256 16.0587301711309  L 0.691729323308257 29.2761904761906  C 0.377361616068643 29.572958572692  0.200584256857909 29.9765932520208  0.200584256857909 30.3976190476189  C 0.200584256857909 30.8186448432173  0.377361616068643 31.2222795225462  0.691729323308257 31.5190476190476  C 1.34335839598993 32.1380952380953  2.4093567120928 32.1317460193452  3.05263157894734 31.5206349330358  L 18.086883889411 17.2460317336308  Z " fill-rule="nonzero" fill="#ffffff" stroke="none" transform="matrix(1 0 0 1 344 84 )" />
  </g>
</svg>