<?xml version="1.0" encoding="utf-8"?>
<svg version="1.1" xmlns:xlink="http://www.w3.org/1999/xlink" width="20px" height="32px" xmlns="http://www.w3.org/2000/svg">
  <g transform="matrix(1 0 0 1 -16 -84 )">
    <path d="M 1.91311611058896 17.2460317336308  L 1.84461152882202 17.1841269717263  L 0.663324992167897 16.0619047619048  L 16.9473684210527 0.588888876487999  C 17.6011489410384 -0.0262352057727639  18.6544901567059 -0.0262352057727639  19.3082706766917 0.588888876487999  C 19.6227389136336 0.885928765188737  19.7995569793899 1.28982596869037  19.7995569793899 1.71111110491074  C 19.7995569793899 2.13239624113112  19.6227389136336 2.53629344463275  19.3082706766917 2.83333333333326  L 5.39014203477444 16.0587301711309  L 19.3082706766917 29.2761904761906  C 19.6226383839314 29.572958572692  19.7994157431421 29.9765932520208  19.7994157431421 30.3976190476189  C 19.7994157431421 30.8186448432173  19.6226383839314 31.2222795225462  19.3082706766917 31.5190476190476  C 18.6566416040101 32.1380952380953  17.5906432879072 32.1317460193452  16.9473684210527 31.5206349330358  L 1.91311611058896 17.2460317336308  Z " fill-rule="nonzero" fill="#ffffff" stroke="none" transform="matrix(1 0 0 1 16 84 )" />
  </g>
</svg>