<?xml version="1.0" encoding="utf-8"?>
<svg version="1.1" xmlns:xlink="http://www.w3.org/1999/xlink" width="15px" height="32px" xmlns="http://www.w3.org/2000/svg">
  <g transform="matrix(1 0 0 1 -11 -104 )">
    <path d="M 1.43483708294172 17.2460317336308  L 1.38345864661651 17.1841269717263  L 0.497493744125923 16.0619047619048  L 12.7105263157895 0.588888876487999  C 13.2008617057788 -0.0262352057727639  13.9908676175294 -0.0262352057727639  14.4812030075188 0.588888876487999  C 14.7170541852252 0.885928765188737  14.8496677345424 1.28982596869037  14.8496677345424 1.71111110491074  C 14.8496677345424 2.13239624113112  14.7170541852252 2.53629344463275  14.4812030075188 2.83333333333326  L 4.04260652608083 16.0587301711309  L 14.4812030075188 29.2761904761906  C 14.7169787879485 29.572958572692  14.8495618073566 29.9765932520208  14.8495618073566 30.3976190476189  C 14.8495618073566 30.8186448432173  14.7169787879485 31.2222795225462  14.4812030075188 31.5190476190476  C 13.9924812030076 32.1380952380953  13.1929824659304 32.1317460193452  12.7105263157895 31.5206349330358  L 1.43483708294172 17.2460317336308  Z " fill-rule="nonzero" fill="#ffffff" stroke="none" transform="matrix(1 0 0 1 11 104 )" />
  </g>
</svg>