<?xml version="1.0" encoding="utf-8"?>
<svg version="1.1" xmlns:xlink="http://www.w3.org/1999/xlink" width="571px" height="74px" viewBox="1175 1786  571 74" xmlns="http://www.w3.org/2000/svg">
  <path d="M 1177 1789  A 1 1 0 0 1 1178 1788 L 1743 1788  A 1 1 0 0 1 1744 1789 L 1744 1857  A 1 1 0 0 1 1743 1858 L 1178 1858  A 1 1 0 0 1 1177 1857 L 1177 1789  Z " fill-rule="nonzero" fill="#ffffff" stroke="none" fill-opacity="0" />
  <path d="M 1176 1789  A 2 2 0 0 1 1178 1787 L 1743 1787  A 2 2 0 0 1 1745 1789 L 1745 1857  A 2 2 0 0 1 1743 1859 L 1178 1859  A 2 2 0 0 1 1176 1857 L 1176 1789  Z " stroke-width="2" stroke="#665565" fill="none" stroke-opacity="0.984313725490196" />
</svg>