<?xml version="1.0" encoding="utf-8"?>
<svg version="1.1" xmlns:xlink="http://www.w3.org/1999/xlink" width="596px" height="42px" viewBox="1150 1683  596 42" xmlns="http://www.w3.org/2000/svg">
  <path d="M 1152 1686  A 1 1 0 0 1 1153 1685 L 1743 1685  A 1 1 0 0 1 1744 1686 L 1744 1722  A 1 1 0 0 1 1743 1723 L 1153 1723  A 1 1 0 0 1 1152 1722 L 1152 1686  Z " fill-rule="nonzero" fill="#ffffff" stroke="none" fill-opacity="0" />
  <path d="M 1151 1686  A 2 2 0 0 1 1153 1684 L 1743 1684  A 2 2 0 0 1 1745 1686 L 1745 1722  A 2 2 0 0 1 1743 1724 L 1153 1724  A 2 2 0 0 1 1151 1722 L 1151 1686  Z " stroke-width="2" stroke="#665565" fill="none" stroke-opacity="0.984313725490196" />
</svg>