<?xml version="1.0" encoding="utf-8"?>
<svg version="1.1" xmlns:xlink="http://www.w3.org/1999/xlink" width="1714px" height="1704px" xmlns="http://www.w3.org/2000/svg">
  <g transform="matrix(1 0 0 1 -103 -595 )">
    <path d="M 107 601  A 2 2 0 0 1 109 599 L 1811 599  A 2 2 0 0 1 1813 601 L 1813 2293  A 2 2 0 0 1 1811 2295 L 109 2295  A 2 2 0 0 1 107 2293 L 107 601  Z " fill-rule="nonzero" fill="#ffffff" stroke="none" fill-opacity="0" />
    <path d="M 105 601  A 4 4 0 0 1 109 597 L 1811 597  A 4 4 0 0 1 1815 601 L 1815 2293  A 4 4 0 0 1 1811 2297 L 109 2297  A 4 4 0 0 1 105 2293 L 105 601  Z " stroke-width="4" stroke-dasharray="12,4" stroke="#797979" fill="none" />
  </g>
</svg>