<?xml version="1.0" encoding="utf-8"?>
<svg version="1.1" xmlns:xlink="http://www.w3.org/1999/xlink" width="22px" height="22px" xmlns="http://www.w3.org/2000/svg">
  <defs>
    <mask fill="white" id="clip8">
      <path d="M 21.9425474016854 11.3041608146067  C 21.9425474016854 10.8937851123595  21.7808110955056 10.5051351825843  21.4887201544944 10.213044241573  L 12.1611218398876 0.890273876404493  L 11.5359023876405 0.265054424157303  C 11.238983497191 -0.0294504915730331  10.761016502809 -0.0294504915730331  10.4640976123596 0.265054424157303  L 0.511279845505621 10.213044241573  C 0.21436095505618 10.5099631320225  0.0550386235955074 10.9034410112359  0.0574525983146066 11.3234726123595  C 0.0671084971910147 12.1731917134831  0.77440308988764 12.8515186095505  1.62412219101123 12.8515186095505  L 2.65006144662921 12.8515186095505  L 2.65006144662921 20.7138342696629  L 19.3499385533708 20.7138342696629  L 19.3499385533708 12.8515186095505  L 20.3976035814607 12.8515186095505  C 20.810393258427 12.8515186095505  21.1990431882022 12.6897823033708  21.4911341292135 12.3976913623595  C 21.7832250702247 12.1056004213483  21.9425474016854 11.716950491573  21.9425474016854 11.3041608146067  Z M 12.3518258426966 14.0512640449438  L 12.3518258426966 18.9757724719101  L 9.64817415730337 18.9757724719101  L 9.64817415730337 14.0512640449438  L 12.3518258426966 14.0512640449438  Z M 19.9317064606742 11.1134568117977  L 17.611876755618 11.1134568117977  L 17.611876755618 18.9757724719101  L 13.8967696629213 18.9757724719101  L 13.8967696629213 13.4719101123595  C 13.8967696629213 12.9384216994382  13.4646681882022 12.5063202247191  12.9311797752809 12.5063202247191  L 9.0688202247191 12.5063202247191  C 8.53533181179775 12.5063202247191  8.10323033707865 12.9384216994382  8.10323033707865 13.4719101123595  L 8.10323033707865 18.9757724719101  L 4.38812324438202 18.9757724719101  L 4.38812324438202 11.1134568117977  L 2.07070751404495 11.1134568117977  L 11.0024139747191 2.1889922752809  L 11.5600421348315 2.74662043539326  L 19.9317064606742 11.1134568117977  Z " fill-rule="evenodd" />
    </mask>
  </defs>
  <g transform="matrix(1 0 0 1 -12 -134 )">
    <path d="M 21.9425474016854 11.3041608146067  C 21.9425474016854 10.8937851123595  21.7808110955056 10.5051351825843  21.4887201544944 10.213044241573  L 12.1611218398876 0.890273876404493  L 11.5359023876405 0.265054424157303  C 11.238983497191 -0.0294504915730331  10.761016502809 -0.0294504915730331  10.4640976123596 0.265054424157303  L 0.511279845505621 10.213044241573  C 0.21436095505618 10.5099631320225  0.0550386235955074 10.9034410112359  0.0574525983146066 11.3234726123595  C 0.0671084971910147 12.1731917134831  0.77440308988764 12.8515186095505  1.62412219101123 12.8515186095505  L 2.65006144662921 12.8515186095505  L 2.65006144662921 20.7138342696629  L 19.3499385533708 20.7138342696629  L 19.3499385533708 12.8515186095505  L 20.3976035814607 12.8515186095505  C 20.810393258427 12.8515186095505  21.1990431882022 12.6897823033708  21.4911341292135 12.3976913623595  C 21.7832250702247 12.1056004213483  21.9425474016854 11.716950491573  21.9425474016854 11.3041608146067  Z M 12.3518258426966 14.0512640449438  L 12.3518258426966 18.9757724719101  L 9.64817415730337 18.9757724719101  L 9.64817415730337 14.0512640449438  L 12.3518258426966 14.0512640449438  Z M 19.9317064606742 11.1134568117977  L 17.611876755618 11.1134568117977  L 17.611876755618 18.9757724719101  L 13.8967696629213 18.9757724719101  L 13.8967696629213 13.4719101123595  C 13.8967696629213 12.9384216994382  13.4646681882022 12.5063202247191  12.9311797752809 12.5063202247191  L 9.0688202247191 12.5063202247191  C 8.53533181179775 12.5063202247191  8.10323033707865 12.9384216994382  8.10323033707865 13.4719101123595  L 8.10323033707865 18.9757724719101  L 4.38812324438202 18.9757724719101  L 4.38812324438202 11.1134568117977  L 2.07070751404495 11.1134568117977  L 11.0024139747191 2.1889922752809  L 11.5600421348315 2.74662043539326  L 19.9317064606742 11.1134568117977  Z " fill-rule="nonzero" fill="#ffffff" stroke="none" transform="matrix(1 0 0 1 12 134 )" />
    <path d="M 21.9425474016854 11.3041608146067  C 21.9425474016854 10.8937851123595  21.7808110955056 10.5051351825843  21.4887201544944 10.213044241573  L 12.1611218398876 0.890273876404493  L 11.5359023876405 0.265054424157303  C 11.238983497191 -0.0294504915730331  10.761016502809 -0.0294504915730331  10.4640976123596 0.265054424157303  L 0.511279845505621 10.213044241573  C 0.21436095505618 10.5099631320225  0.0550386235955074 10.9034410112359  0.0574525983146066 11.3234726123595  C 0.0671084971910147 12.1731917134831  0.77440308988764 12.8515186095505  1.62412219101123 12.8515186095505  L 2.65006144662921 12.8515186095505  L 2.65006144662921 20.7138342696629  L 19.3499385533708 20.7138342696629  L 19.3499385533708 12.8515186095505  L 20.3976035814607 12.8515186095505  C 20.810393258427 12.8515186095505  21.1990431882022 12.6897823033708  21.4911341292135 12.3976913623595  C 21.7832250702247 12.1056004213483  21.9425474016854 11.716950491573  21.9425474016854 11.3041608146067  Z " stroke-width="2" stroke="#b0c398" fill="none" transform="matrix(1 0 0 1 12 134 )" mask="url(#clip8)" />
    <path d="M 12.3518258426966 14.0512640449438  L 12.3518258426966 18.9757724719101  L 9.64817415730337 18.9757724719101  L 9.64817415730337 14.0512640449438  L 12.3518258426966 14.0512640449438  Z " stroke-width="2" stroke="#b0c398" fill="none" transform="matrix(1 0 0 1 12 134 )" mask="url(#clip8)" />
    <path d="M 19.9317064606742 11.1134568117977  L 17.611876755618 11.1134568117977  L 17.611876755618 18.9757724719101  L 13.8967696629213 18.9757724719101  L 13.8967696629213 13.4719101123595  C 13.8967696629213 12.9384216994382  13.4646681882022 12.5063202247191  12.9311797752809 12.5063202247191  L 9.0688202247191 12.5063202247191  C 8.53533181179775 12.5063202247191  8.10323033707865 12.9384216994382  8.10323033707865 13.4719101123595  L 8.10323033707865 18.9757724719101  L 4.38812324438202 18.9757724719101  L 4.38812324438202 11.1134568117977  L 2.07070751404495 11.1134568117977  L 11.0024139747191 2.1889922752809  L 11.5600421348315 2.74662043539326  L 19.9317064606742 11.1134568117977  Z " stroke-width="2" stroke="#b0c398" fill="none" transform="matrix(1 0 0 1 12 134 )" mask="url(#clip8)" />
  </g>
</svg>