<?xml version="1.0" encoding="utf-8"?>
<svg version="1.1" xmlns:xlink="http://www.w3.org/1999/xlink" width="20px" height="24px" xmlns="http://www.w3.org/2000/svg">
  <defs>
    <mask fill="white" id="clip10">
      <path d="M 2.84503016591249 11.8167601809955  C 4.15921065862245 14.3443619909502  8.76062845651082 20.767257918552  9.52506787330317 21.4282352941176  C 10.0899597787833 20.9633846153846  15.1244695827049 14.2739185520362  16.6487908496732 11.0107149321267  C 18.5474484665662 6.94602714932127  16.3895022624434 2.78910407239817  13.5999019607843 1.17777375565613  C 12.4536123680241 0.515656108597292  11.6594871794872 0.249846153846152  10.8778029160382 0.15482352941178  C 9.75762694821517 -0.016090497737561  8.75927350427351 -0.0373755656108463  7.82386375062847 0.24123076923077  C 2.2941804927099 1.88765610859728  0.143378582202113 6.62117647058823  2.84503016591249 11.8167601809955  Z M 10.6611337355455 1.6587149321267  L 10.7047385620915 1.66466968325793  C 11.1779864253394 1.72219004524886  11.7687456008044 1.86358371040723  12.8763574660634 2.50340271493212  C 14.8155404725993 3.62365610859727  16.9323453996983 6.89294117647058  15.3165032679739 10.3522714932127  C 14.2212091503268 12.6969230769231  11.160987933635 16.9820633484163  9.52802413273001 19.0957466063348  C 7.95985168426346 17.0298280542986  5.1007792860734 12.931185520362  4.14849421820009 11.0996561085973  C 3.07931372549021 9.04361990950226  2.87237556561086 7.08298642533935  3.54997486173957 5.42984615384614  C 4.25245600804426 3.71601809954752  5.91621417797886 2.39190950226242  8.23503016591251 1.70153846153846  C 8.58005027652088 1.59878733031674  8.95894419306183 1.54886877828054  9.39351432880846 1.54886877828054  C 9.76218451483158 1.54886877828054  10.176799899447 1.58485067873304  10.6611337355455 1.6587149321267  Z M 0.0622046254399322 18.3947330316742  C 0.0622046254399322 21.2506063348416  4.33609351432883 23.5657375565611  9.60821266968324 23.5657375565611  C 14.8803318250377 23.5657375565611  19.1540975364505 21.2506063348416  19.1540975364505 18.3947330316742  C 19.1540975364505 16.7937918552036  17.8110935143288 15.363257918552  15.7025414781297 14.4145520361991  C 15.4204304750759 14.8440694193944  15.1342757379849 15.2707621899002  14.8441176470588 15.6945701357466  C 15.1342006033182 15.8142986425339  15.4112267471091 15.9432760180995  15.6694067370538 16.083149321267  C 16.9258169934641 16.7637647058823  17.6759678230267 17.6277104072398  17.6759678230267 18.3944796380091  C 17.6759678230267 19.1611221719457  16.9258169934641 20.0250678733031  15.6694067370538 20.7056832579185  C 14.0980316742081 21.5569592760181  11.8888436400201 22.0452488687783  9.60821266968324 22.0452488687783  C 7.32758169934641 22.0452488687783  5.11839366515839 21.5569592760181  3.5468954248366 20.7058099547511  C 2.29048516842634 20.0251945701358  1.54033433886373 19.1612488687783  1.54033433886373 18.3946063348416  C 1.54033433886373 17.627963800905  2.29048516842634 16.7638914027149  3.54701860231273 16.0832760180996  C 3.78274157136199 15.9566555274824  4.02401500657551 15.8412811426242  4.2700703871292 15.7375203619909  C 3.98145408377961 15.3145484661538  3.69612489993718 14.889213648905  3.41411010558071 14.461556561086  C 1.36369783810958 15.4100090497737  0.0622046254399322 16.8196380090498  0.0622046254399322 18.3947330316742  Z M 5.60494469582702 8.05449773755655  C 5.60506787330316 10.3113484162896  7.4252614379085 12.140850678733  9.62028406234291 12.0905520361991  C 11.7613549522373 12.0413936651584  13.4831297134238 10.1998552036199  13.4517194570136 7.99216289592761  C 13.4208019105078 5.78713122171945  11.6456913021619 4.00374660633483  9.49809200603321 4.01971040723982  C 7.35246354952238 4.03580090497738  5.60494469582702 5.84680542986423  5.60494469582702 8.05449773755655  Z M 9.50880844645553 5.53994570135745  L 9.52679235796884 5.53994570135745  C 10.8569859225742 5.53994570135745  11.9546204122675 6.64993665158369  11.9737129210659 8.01408144796379  C 11.9932981397687 9.39330316742081  10.9227626948216 10.5399095022624  9.5872724987431 10.5705701357466  C 9.56891905480139 10.5709502262443  9.5503192559075 10.5712036199095  9.5318426344897 10.5712036199095  C 8.18169431875314 10.5712036199095  7.08319758672701 9.44220814479638  7.08307440925087 8.05437104072398  C 7.08307440925087 6.6779366515837  8.17122423328305 5.54995475113122  9.50880844645553 5.53994570135745  Z " fill-rule="evenodd" />
    </mask>
  </defs>
  <g transform="matrix(1 0 0 1 -13 -232 )">
    <path d="M 2.84503016591249 11.8167601809955  C 4.15921065862245 14.3443619909502  8.76062845651082 20.767257918552  9.52506787330317 21.4282352941176  C 10.0899597787833 20.9633846153846  15.1244695827049 14.2739185520362  16.6487908496732 11.0107149321267  C 18.5474484665662 6.94602714932127  16.3895022624434 2.78910407239817  13.5999019607843 1.17777375565613  C 12.4536123680241 0.515656108597292  11.6594871794872 0.249846153846152  10.8778029160382 0.15482352941178  C 9.75762694821517 -0.016090497737561  8.75927350427351 -0.0373755656108463  7.82386375062847 0.24123076923077  C 2.2941804927099 1.88765610859728  0.143378582202113 6.62117647058823  2.84503016591249 11.8167601809955  Z M 10.6611337355455 1.6587149321267  L 10.7047385620915 1.66466968325793  C 11.1779864253394 1.72219004524886  11.7687456008044 1.86358371040723  12.8763574660634 2.50340271493212  C 14.8155404725993 3.62365610859727  16.9323453996983 6.89294117647058  15.3165032679739 10.3522714932127  C 14.2212091503268 12.6969230769231  11.160987933635 16.9820633484163  9.52802413273001 19.0957466063348  C 7.95985168426346 17.0298280542986  5.1007792860734 12.931185520362  4.14849421820009 11.0996561085973  C 3.07931372549021 9.04361990950226  2.87237556561086 7.08298642533935  3.54997486173957 5.42984615384614  C 4.25245600804426 3.71601809954752  5.91621417797886 2.39190950226242  8.23503016591251 1.70153846153846  C 8.58005027652088 1.59878733031674  8.95894419306183 1.54886877828054  9.39351432880846 1.54886877828054  C 9.76218451483158 1.54886877828054  10.176799899447 1.58485067873304  10.6611337355455 1.6587149321267  Z M 0.0622046254399322 18.3947330316742  C 0.0622046254399322 21.2506063348416  4.33609351432883 23.5657375565611  9.60821266968324 23.5657375565611  C 14.8803318250377 23.5657375565611  19.1540975364505 21.2506063348416  19.1540975364505 18.3947330316742  C 19.1540975364505 16.7937918552036  17.8110935143288 15.363257918552  15.7025414781297 14.4145520361991  C 15.4204304750759 14.8440694193944  15.1342757379849 15.2707621899002  14.8441176470588 15.6945701357466  C 15.1342006033182 15.8142986425339  15.4112267471091 15.9432760180995  15.6694067370538 16.083149321267  C 16.9258169934641 16.7637647058823  17.6759678230267 17.6277104072398  17.6759678230267 18.3944796380091  C 17.6759678230267 19.1611221719457  16.9258169934641 20.0250678733031  15.6694067370538 20.7056832579185  C 14.0980316742081 21.5569592760181  11.8888436400201 22.0452488687783  9.60821266968324 22.0452488687783  C 7.32758169934641 22.0452488687783  5.11839366515839 21.5569592760181  3.5468954248366 20.7058099547511  C 2.29048516842634 20.0251945701358  1.54033433886373 19.1612488687783  1.54033433886373 18.3946063348416  C 1.54033433886373 17.627963800905  2.29048516842634 16.7638914027149  3.54701860231273 16.0832760180996  C 3.78274157136199 15.9566555274824  4.02401500657551 15.8412811426242  4.2700703871292 15.7375203619909  C 3.98145408377961 15.3145484661538  3.69612489993718 14.889213648905  3.41411010558071 14.461556561086  C 1.36369783810958 15.4100090497737  0.0622046254399322 16.8196380090498  0.0622046254399322 18.3947330316742  Z M 5.60494469582702 8.05449773755655  C 5.60506787330316 10.3113484162896  7.4252614379085 12.140850678733  9.62028406234291 12.0905520361991  C 11.7613549522373 12.0413936651584  13.4831297134238 10.1998552036199  13.4517194570136 7.99216289592761  C 13.4208019105078 5.78713122171945  11.6456913021619 4.00374660633483  9.49809200603321 4.01971040723982  C 7.35246354952238 4.03580090497738  5.60494469582702 5.84680542986423  5.60494469582702 8.05449773755655  Z M 9.50880844645553 5.53994570135745  L 9.52679235796884 5.53994570135745  C 10.8569859225742 5.53994570135745  11.9546204122675 6.64993665158369  11.9737129210659 8.01408144796379  C 11.9932981397687 9.39330316742081  10.9227626948216 10.5399095022624  9.5872724987431 10.5705701357466  C 9.56891905480139 10.5709502262443  9.5503192559075 10.5712036199095  9.5318426344897 10.5712036199095  C 8.18169431875314 10.5712036199095  7.08319758672701 9.44220814479638  7.08307440925087 8.05437104072398  C 7.08307440925087 6.6779366515837  8.17122423328305 5.54995475113122  9.50880844645553 5.53994570135745  Z " fill-rule="nonzero" fill="#ffffff" stroke="none" transform="matrix(1 0 0 1 13 232 )" />
    <path d="M 2.84503016591249 11.8167601809955  C 4.15921065862245 14.3443619909502  8.76062845651082 20.767257918552  9.52506787330317 21.4282352941176  C 10.0899597787833 20.9633846153846  15.1244695827049 14.2739185520362  16.6487908496732 11.0107149321267  C 18.5474484665662 6.94602714932127  16.3895022624434 2.78910407239817  13.5999019607843 1.17777375565613  C 12.4536123680241 0.515656108597292  11.6594871794872 0.249846153846152  10.8778029160382 0.15482352941178  C 9.75762694821517 -0.016090497737561  8.75927350427351 -0.0373755656108463  7.82386375062847 0.24123076923077  C 2.2941804927099 1.88765610859728  0.143378582202113 6.62117647058823  2.84503016591249 11.8167601809955  Z " stroke-width="2" stroke="#b0c398" fill="none" transform="matrix(1 0 0 1 13 232 )" mask="url(#clip10)" />
    <path d="M 10.6611337355455 1.6587149321267  L 10.7047385620915 1.66466968325793  C 11.1779864253394 1.72219004524886  11.7687456008044 1.86358371040723  12.8763574660634 2.50340271493212  C 14.8155404725993 3.62365610859727  16.9323453996983 6.89294117647058  15.3165032679739 10.3522714932127  C 14.2212091503268 12.6969230769231  11.160987933635 16.9820633484163  9.52802413273001 19.0957466063348  C 7.95985168426346 17.0298280542986  5.1007792860734 12.931185520362  4.14849421820009 11.0996561085973  C 3.07931372549021 9.04361990950226  2.87237556561086 7.08298642533935  3.54997486173957 5.42984615384614  C 4.25245600804426 3.71601809954752  5.91621417797886 2.39190950226242  8.23503016591251 1.70153846153846  C 8.58005027652088 1.59878733031674  8.95894419306183 1.54886877828054  9.39351432880846 1.54886877828054  C 9.76218451483158 1.54886877828054  10.176799899447 1.58485067873304  10.6611337355455 1.6587149321267  Z " stroke-width="2" stroke="#b0c398" fill="none" transform="matrix(1 0 0 1 13 232 )" mask="url(#clip10)" />
    <path d="M 0.0622046254399322 18.3947330316742  C 0.0622046254399322 21.2506063348416  4.33609351432883 23.5657375565611  9.60821266968324 23.5657375565611  C 14.8803318250377 23.5657375565611  19.1540975364505 21.2506063348416  19.1540975364505 18.3947330316742  C 19.1540975364505 16.7937918552036  17.8110935143288 15.363257918552  15.7025414781297 14.4145520361991  C 15.4204304750759 14.8440694193944  15.1342757379849 15.2707621899002  14.8441176470588 15.6945701357466  C 15.1342006033182 15.8142986425339  15.4112267471091 15.9432760180995  15.6694067370538 16.083149321267  C 16.9258169934641 16.7637647058823  17.6759678230267 17.6277104072398  17.6759678230267 18.3944796380091  C 17.6759678230267 19.1611221719457  16.9258169934641 20.0250678733031  15.6694067370538 20.7056832579185  C 14.0980316742081 21.5569592760181  11.8888436400201 22.0452488687783  9.60821266968324 22.0452488687783  C 7.32758169934641 22.0452488687783  5.11839366515839 21.5569592760181  3.5468954248366 20.7058099547511  C 2.29048516842634 20.0251945701358  1.54033433886373 19.1612488687783  1.54033433886373 18.3946063348416  C 1.54033433886373 17.627963800905  2.29048516842634 16.7638914027149  3.54701860231273 16.0832760180996  C 3.78274157136199 15.9566555274824  4.02401500657551 15.8412811426242  4.2700703871292 15.7375203619909  C 3.98145408377961 15.3145484661538  3.69612489993718 14.889213648905  3.41411010558071 14.461556561086  C 1.36369783810958 15.4100090497737  0.0622046254399322 16.8196380090498  0.0622046254399322 18.3947330316742  Z " stroke-width="2" stroke="#b0c398" fill="none" transform="matrix(1 0 0 1 13 232 )" mask="url(#clip10)" />
    <path d="M 5.60494469582702 8.05449773755655  C 5.60506787330316 10.3113484162896  7.4252614379085 12.140850678733  9.62028406234291 12.0905520361991  C 11.7613549522373 12.0413936651584  13.4831297134238 10.1998552036199  13.4517194570136 7.99216289592761  C 13.4208019105078 5.78713122171945  11.6456913021619 4.00374660633483  9.49809200603321 4.01971040723982  C 7.35246354952238 4.03580090497738  5.60494469582702 5.84680542986423  5.60494469582702 8.05449773755655  Z " stroke-width="2" stroke="#b0c398" fill="none" transform="matrix(1 0 0 1 13 232 )" mask="url(#clip10)" />
    <path d="M 9.50880844645553 5.53994570135745  L 9.52679235796884 5.53994570135745  C 10.8569859225742 5.53994570135745  11.9546204122675 6.64993665158369  11.9737129210659 8.01408144796379  C 11.9932981397687 9.39330316742081  10.9227626948216 10.5399095022624  9.5872724987431 10.5705701357466  C 9.56891905480139 10.5709502262443  9.5503192559075 10.5712036199095  9.5318426344897 10.5712036199095  C 8.18169431875314 10.5712036199095  7.08319758672701 9.44220814479638  7.08307440925087 8.05437104072398  C 7.08307440925087 6.6779366515837  8.17122423328305 5.54995475113122  9.50880844645553 5.53994570135745  Z " stroke-width="2" stroke="#b0c398" fill="none" transform="matrix(1 0 0 1 13 232 )" mask="url(#clip10)" />
  </g>
</svg>