<?xml version="1.0" encoding="utf-8"?>
<svg version="1.1" xmlns:xlink="http://www.w3.org/1999/xlink" width="18px" height="18px" xmlns="http://www.w3.org/2000/svg">
  <defs>
    <mask fill="white" id="clip11">
      <path d="M 7.06875 9.78  C 7.563 9.78  7.96874999999999 10.16475  8.01825000000001 10.65675  L 8.02274999999999 10.7565  L 8.02274999999999 16.938  C 8.02274999999999 17.4435  7.64775 17.859  7.16625000000001 17.90925  L 7.06875 17.91375  L 1.02375 17.91375  C 0.530250000000007 17.91375  0.123749999999997 17.52975  0.0750000000000049 17.03775  L 0.069749999999995 16.938  L 0.069749999999995 10.7565  C 0.069749999999995 10.251  0.445500000000008 9.8355  0.927000000000005 9.78525  L 1.02450000000001 9.78075  L 7.06875 9.78075  Z M 9.16725 14.93175  L 16.82025 14.93175  C 16.90275 14.93175  16.97025 14.99925  16.97025 15.08175  L 16.97025 16.77  C 16.97025 16.8528427124746  16.9030927124746 16.92  16.82025 16.92  L 9.16725 16.92  C 9.08440728752537 16.92  9.01725000000001 16.8528427124746  9.01725000000001 16.77  L 9.01725000000001 15.08175  C 9.01725000000001 14.99925  9.08475 14.93175  9.16725 14.93175  Z M 6.43125 11.4075  L 6.43274999999999 11.40675  L 1.65974999999999 11.40675  L 1.65974999999999 16.28775  L 6.43125 16.28775  L 6.43125 11.4075  Z M 16.82025 10.95525  C 16.90275 10.95525  16.97025 11.02275  16.97025 11.10525  L 16.97025 12.7935  C 16.97025 12.8763427124746  16.9030927124746 12.9435  16.82025 12.9435  L 9.16725 12.9435  C 9.08440728752537 12.9435  9.01725000000001 12.8763427124746  9.01725000000001 12.7935  L 9.01725000000001 11.106  C 9.01725000000001 11.02275  9.08475 10.956  9.16725 10.956  L 16.82025 10.956  Z M 1.02450000000001 0.0202499999999962  L 7.06875 0.0202499999999962  C 7.563 0.0202499999999962  7.96874999999999 0.40425  8.01825000000001 0.896249999999998  L 8.02274999999999 0.996000000000002  L 8.02274999999999 7.17749999999999  C 8.02274999999999 7.683  7.64775 8.0985  7.16625000000001 8.14875  L 7.06875 8.154  L 1.02375 8.154  C 0.530250000000007 8.154  0.123749999999997 7.76925  0.0750000000000049 7.27725  L 0.069749999999995 7.17749999999999  L 0.069749999999995 0.996000000000002  C 0.069749999999995 0.490500000000003  0.445500000000008 0.0750000000000049  0.927000000000005 0.0247499999999994  L 1.02450000000001 0.0202499999999962  Z M 16.82025 4.9905  C 16.90275 4.9905  16.97025 5.058  16.97025 5.14049999999999  L 16.97025 6.82875  C 16.97025 6.91159271247462  16.9030927124746 6.97875  16.82025 6.97875  L 9.16725 6.97875  C 9.08440728752537 6.97875  9.01725000000001 6.91159271247462  9.01725000000001 6.82875  L 9.01725000000001 5.14125  C 9.01725000000001 5.058  9.08475 4.99125  9.16725 4.99125  L 16.82025 4.99125  Z M 6.43125 1.647  L 6.43274999999999 1.647  L 1.65974999999999 1.647  L 1.65974999999999 6.52725  L 6.43125 6.52725  L 6.43125 1.647  Z M 16.82025 1.014  C 16.90275 1.014  16.97025 1.0815  16.97025 1.164  L 16.97025 2.85225  C 16.97025 2.93509271247462  16.9030927124746 3.00225  16.82025 3.00225  L 9.16725 3.00225  C 9.08440728752537 3.00225  9.01725000000001 2.93509271247462  9.01725000000001 2.85225  L 9.01725000000001 1.16474999999999  C 9.01725000000001 1.0815  9.08475 1.01474999999999  9.16725 1.01474999999999  L 16.82025 1.01474999999999  Z " fill-rule="evenodd" />
    </mask>
  </defs>
  <g transform="matrix(1 0 0 1 -14 -446 )">
    <path d="M 7.06875 9.78  C 7.563 9.78  7.96874999999999 10.16475  8.01825000000001 10.65675  L 8.02274999999999 10.7565  L 8.02274999999999 16.938  C 8.02274999999999 17.4435  7.64775 17.859  7.16625000000001 17.90925  L 7.06875 17.91375  L 1.02375 17.91375  C 0.530250000000007 17.91375  0.123749999999997 17.52975  0.0750000000000049 17.03775  L 0.069749999999995 16.938  L 0.069749999999995 10.7565  C 0.069749999999995 10.251  0.445500000000008 9.8355  0.927000000000005 9.78525  L 1.02450000000001 9.78075  L 7.06875 9.78075  Z M 9.16725 14.93175  L 16.82025 14.93175  C 16.90275 14.93175  16.97025 14.99925  16.97025 15.08175  L 16.97025 16.77  C 16.97025 16.8528427124746  16.9030927124746 16.92  16.82025 16.92  L 9.16725 16.92  C 9.08440728752537 16.92  9.01725000000001 16.8528427124746  9.01725000000001 16.77  L 9.01725000000001 15.08175  C 9.01725000000001 14.99925  9.08475 14.93175  9.16725 14.93175  Z M 6.43125 11.4075  L 6.43274999999999 11.40675  L 1.65974999999999 11.40675  L 1.65974999999999 16.28775  L 6.43125 16.28775  L 6.43125 11.4075  Z M 16.82025 10.95525  C 16.90275 10.95525  16.97025 11.02275  16.97025 11.10525  L 16.97025 12.7935  C 16.97025 12.8763427124746  16.9030927124746 12.9435  16.82025 12.9435  L 9.16725 12.9435  C 9.08440728752537 12.9435  9.01725000000001 12.8763427124746  9.01725000000001 12.7935  L 9.01725000000001 11.106  C 9.01725000000001 11.02275  9.08475 10.956  9.16725 10.956  L 16.82025 10.956  Z M 1.02450000000001 0.0202499999999962  L 7.06875 0.0202499999999962  C 7.563 0.0202499999999962  7.96874999999999 0.40425  8.01825000000001 0.896249999999998  L 8.02274999999999 0.996000000000002  L 8.02274999999999 7.17749999999999  C 8.02274999999999 7.683  7.64775 8.0985  7.16625000000001 8.14875  L 7.06875 8.154  L 1.02375 8.154  C 0.530250000000007 8.154  0.123749999999997 7.76925  0.0750000000000049 7.27725  L 0.069749999999995 7.17749999999999  L 0.069749999999995 0.996000000000002  C 0.069749999999995 0.490500000000003  0.445500000000008 0.0750000000000049  0.927000000000005 0.0247499999999994  L 1.02450000000001 0.0202499999999962  Z M 16.82025 4.9905  C 16.90275 4.9905  16.97025 5.058  16.97025 5.14049999999999  L 16.97025 6.82875  C 16.97025 6.91159271247462  16.9030927124746 6.97875  16.82025 6.97875  L 9.16725 6.97875  C 9.08440728752537 6.97875  9.01725000000001 6.91159271247462  9.01725000000001 6.82875  L 9.01725000000001 5.14125  C 9.01725000000001 5.058  9.08475 4.99125  9.16725 4.99125  L 16.82025 4.99125  Z M 6.43125 1.647  L 6.43274999999999 1.647  L 1.65974999999999 1.647  L 1.65974999999999 6.52725  L 6.43125 6.52725  L 6.43125 1.647  Z M 16.82025 1.014  C 16.90275 1.014  16.97025 1.0815  16.97025 1.164  L 16.97025 2.85225  C 16.97025 2.93509271247462  16.9030927124746 3.00225  16.82025 3.00225  L 9.16725 3.00225  C 9.08440728752537 3.00225  9.01725000000001 2.93509271247462  9.01725000000001 2.85225  L 9.01725000000001 1.16474999999999  C 9.01725000000001 1.0815  9.08475 1.01474999999999  9.16725 1.01474999999999  L 16.82025 1.01474999999999  Z " fill-rule="nonzero" fill="#ffffff" stroke="none" fill-opacity="0.647058823529412" transform="matrix(1 0 0 1 14 446 )" />
    <path d="M 7.06875 9.78  C 7.563 9.78  7.96874999999999 10.16475  8.01825000000001 10.65675  L 8.02274999999999 10.7565  L 8.02274999999999 16.938  C 8.02274999999999 17.4435  7.64775 17.859  7.16625000000001 17.90925  L 7.06875 17.91375  L 1.02375 17.91375  C 0.530250000000007 17.91375  0.123749999999997 17.52975  0.0750000000000049 17.03775  L 0.069749999999995 16.938  L 0.069749999999995 10.7565  C 0.069749999999995 10.251  0.445500000000008 9.8355  0.927000000000005 9.78525  L 1.02450000000001 9.78075  L 7.06875 9.78075  Z " stroke-width="2" stroke="#b0c398" fill="none" transform="matrix(1 0 0 1 14 446 )" mask="url(#clip11)" />
    <path d="M 9.16725 14.93175  L 16.82025 14.93175  C 16.90275 14.93175  16.97025 14.99925  16.97025 15.08175  L 16.97025 16.77  C 16.97025 16.8528427124746  16.9030927124746 16.92  16.82025 16.92  L 9.16725 16.92  C 9.08440728752537 16.92  9.01725000000001 16.8528427124746  9.01725000000001 16.77  L 9.01725000000001 15.08175  C 9.01725000000001 14.99925  9.08475 14.93175  9.16725 14.93175  Z " stroke-width="2" stroke="#b0c398" fill="none" transform="matrix(1 0 0 1 14 446 )" mask="url(#clip11)" />
    <path d="M 6.43125 11.4075  L 6.43274999999999 11.40675  L 1.65974999999999 11.40675  L 1.65974999999999 16.28775  L 6.43125 16.28775  L 6.43125 11.4075  Z " stroke-width="2" stroke="#b0c398" fill="none" transform="matrix(1 0 0 1 14 446 )" mask="url(#clip11)" />
    <path d="M 16.82025 10.95525  C 16.90275 10.95525  16.97025 11.02275  16.97025 11.10525  L 16.97025 12.7935  C 16.97025 12.8763427124746  16.9030927124746 12.9435  16.82025 12.9435  L 9.16725 12.9435  C 9.08440728752537 12.9435  9.01725000000001 12.8763427124746  9.01725000000001 12.7935  L 9.01725000000001 11.106  C 9.01725000000001 11.02275  9.08475 10.956  9.16725 10.956  L 16.82025 10.956  Z " stroke-width="2" stroke="#b0c398" fill="none" transform="matrix(1 0 0 1 14 446 )" mask="url(#clip11)" />
    <path d="M 1.02450000000001 0.0202499999999962  L 7.06875 0.0202499999999962  C 7.563 0.0202499999999962  7.96874999999999 0.40425  8.01825000000001 0.896249999999998  L 8.02274999999999 0.996000000000002  L 8.02274999999999 7.17749999999999  C 8.02274999999999 7.683  7.64775 8.0985  7.16625000000001 8.14875  L 7.06875 8.154  L 1.02375 8.154  C 0.530250000000007 8.154  0.123749999999997 7.76925  0.0750000000000049 7.27725  L 0.069749999999995 7.17749999999999  L 0.069749999999995 0.996000000000002  C 0.069749999999995 0.490500000000003  0.445500000000008 0.0750000000000049  0.927000000000005 0.0247499999999994  L 1.02450000000001 0.0202499999999962  Z " stroke-width="2" stroke="#b0c398" fill="none" transform="matrix(1 0 0 1 14 446 )" mask="url(#clip11)" />
    <path d="M 16.82025 4.9905  C 16.90275 4.9905  16.97025 5.058  16.97025 5.14049999999999  L 16.97025 6.82875  C 16.97025 6.91159271247462  16.9030927124746 6.97875  16.82025 6.97875  L 9.16725 6.97875  C 9.08440728752537 6.97875  9.01725000000001 6.91159271247462  9.01725000000001 6.82875  L 9.01725000000001 5.14125  C 9.01725000000001 5.058  9.08475 4.99125  9.16725 4.99125  L 16.82025 4.99125  Z " stroke-width="2" stroke="#b0c398" fill="none" transform="matrix(1 0 0 1 14 446 )" mask="url(#clip11)" />
    <path d="M 6.43125 1.647  L 6.43274999999999 1.647  L 1.65974999999999 1.647  L 1.65974999999999 6.52725  L 6.43125 6.52725  L 6.43125 1.647  Z " stroke-width="2" stroke="#b0c398" fill="none" transform="matrix(1 0 0 1 14 446 )" mask="url(#clip11)" />
    <path d="M 16.82025 1.014  C 16.90275 1.014  16.97025 1.0815  16.97025 1.164  L 16.97025 2.85225  C 16.97025 2.93509271247462  16.9030927124746 3.00225  16.82025 3.00225  L 9.16725 3.00225  C 9.08440728752537 3.00225  9.01725000000001 2.93509271247462  9.01725000000001 2.85225  L 9.01725000000001 1.16474999999999  C 9.01725000000001 1.0815  9.08475 1.01474999999999  9.16725 1.01474999999999  L 16.82025 1.01474999999999  Z " stroke-width="2" stroke="#b0c398" fill="none" transform="matrix(1 0 0 1 14 446 )" mask="url(#clip11)" />
  </g>
</svg>