<?xml version="1.0" encoding="utf-8"?>
<svg version="1.1" xmlns:xlink="http://www.w3.org/1999/xlink" width="18px" height="19px" xmlns="http://www.w3.org/2000/svg">
  <defs>
    <mask fill="white" id="clip13">
      <path d="M 9.6905851910828 9.50334063163477  C 9.61221138535031 9.46363123673031  9.53159832802547 9.42392184182584  9.44874601910828 9.38641852441611  C 10.9064988057325 8.49957537154992  11.8760947452229 6.91561173036093  11.8760947452229 5.10662818471339  C 11.8760947452229 2.32917661889601  9.58981886942675 0.0767714968153086  6.77060111464969 0.0767714968153086  C 3.95138335987261 0.0767714968153086  1.66510748407643 2.32917661889601  1.66510748407643 5.10662818471339  C 1.66510748407643 6.90899349787687  2.6279856687898 8.49075106157113  4.07454219745223 9.37759421443733  C 2.03458399681528 10.3041467622081  0.6328125 12.2874104299364  0.231986464968147 14.7692476114649  L 0.0416500796178363 16.2583499203821  C -0.0591162420382127 17.048125663482  0.565634952229295 17.7474522292994  1.37400477707007 17.7333333333333  L 7.41102707006369 17.7333333333333  C 7.43565883757962 17.7474522292994  7.45805135350318 17.7452461518046  7.48268312101912 17.74304007431  C 7.50731488853503 17.7452461518046  7.52970740445859 17.7474522292994  7.55433917197452 17.7474522292994  C 7.92605493630574 17.7474522292994  8.22611464968152 17.4518378450107  8.22611464968152 17.0856289808917  C 8.22611464968152 16.7194201167729  7.92605493630574 16.4238057324841  7.55433917197452 16.4238057324841  C 7.52970740445859 16.4238057324841  7.50507563694267 16.4260118099788  7.48268312101912 16.4282178874735  C 7.46029060509554 16.4260118099788  7.43565883757962 16.4238057324841  7.41102707006369 16.3779193205944  L 2.13535031847135 16.3779193205944  C 1.73004578025477 16.4238057324841  1.4187898089172 16.0752454883227  1.46805334394905 15.6803576167729  L 1.55986265923567 14.9589702760085  C 1.67854299363057 14.2419950902335  1.89351114649682 13.5757596868365  2.20028861464969 12.9735005307855  C 2.50034832802548 12.3866839171975  2.88102109872611 11.8770800159236  3.3311106687898 11.4535131369427  C 4.25368232484077 10.5931429140128  5.4404856687898 10.1364848726115  6.76836186305733 10.1364848726115  C 7.44013734076433 10.1364848726115  8.08504179936305 10.2578191348195  8.6829219745223 10.5004876592357  C 8.81503781847134 10.5534335191083  8.94491441082803 10.6129976114649  9.0703125 10.676973858811  C 9.16883957006369 10.727713641189  9.27632364649682 10.7519804936306  9.38156847133757 10.7519804936306  C 9.58310111464969 10.7519804936306  9.78015525477706 10.6637373938429  9.91003184713376 10.498281581741  C 10.1675457802548 10.1717821125265  10.0645402070064 9.69306329617831  9.6905851910828 9.50334063163477  Z M 17.7675656847134 10.2159036624204  C 18.0138833598726 9.8541069532909  17.9310310509554 9.37097598195327  17.5637937898089 9.08859806263269  L 15.3155851910828 7.51787088641195  C 15.172273089172 7.42521563163477  15.0065684713376 7.37888800424626  14.8431031050955 7.37888800424626  C 14.5811106687898 7.37888800424626  14.3213574840764 7.49581011146492  14.1690883757962 7.71862393842887  L 9.87644307324841 13.758864118896  C 9.79359076433121 13.880198381104  9.71297770700638 14.080951433121  9.71297770700638 14.2419950902335  L 9.75328423566879 16.5385217622081  C 9.75328423566879 17.0106223460722  10.156349522293 17.3415339702761  10.5750895700637 17.3415339702761  C 10.6557026273885 17.3415339702761  10.7385549363057 17.3282975053078  10.8169287420382 17.3040306528662  L 13.0651373407643 16.5385217622081  C 13.2286027070064 16.4988123673037  13.3920680732484 16.3774781050955  13.4749203821656 16.2561438428874  L 17.7675656847134 10.2159036624204  Z M 9.43083200636942 2.48580812101914  C 10.1406747611465 3.18513468683652  10.5325437898089 4.11609938959665  10.5325437898089 5.10662818471339  C 10.5325437898089 6.09715697983014  10.1406747611465 7.02812168259027  9.43083200636942 7.72744824840765  C 8.72098925159236 8.42677481422504  7.77602507961784 8.81283837579617  6.77060111464969 8.81283837579617  C 5.76517714968152 8.81283837579617  4.820212977707 8.42677481422504  4.11037022292993 7.72744824840765  C 3.40052746815287 7.02812168259027  3.00865843949044 6.09715697983014  3.00865843949044 5.10662818471339  C 3.00865843949044 4.11609938959665  3.40052746815287 3.18513468683652  4.11037022292993 2.48580812101914  C 4.820212977707 1.78648155520175  5.76517714968152 1.40041799363062  6.77060111464969 1.40041799363062  C 7.77602507961784 1.40041799363062  8.72098925159236 1.78648155520175  9.43083200636942 2.48580812101914  Z M 12.4896496815287 15.3340034501062  L 11.085638933121 15.8127222664544  L 11.0610071656051 14.4030387473461  L 14.9707404458599 8.89887539808916  L 16.3680334394904 9.8761677282378  L 12.4896496815287 15.3340034501062  Z " fill-rule="evenodd" />
    </mask>
  </defs>
  <g transform="matrix(1 0 0 1 -14 -551 )">
    <path d="M 9.6905851910828 9.50334063163477  C 9.61221138535031 9.46363123673031  9.53159832802547 9.42392184182584  9.44874601910828 9.38641852441611  C 10.9064988057325 8.49957537154992  11.8760947452229 6.91561173036093  11.8760947452229 5.10662818471339  C 11.8760947452229 2.32917661889601  9.58981886942675 0.0767714968153086  6.77060111464969 0.0767714968153086  C 3.95138335987261 0.0767714968153086  1.66510748407643 2.32917661889601  1.66510748407643 5.10662818471339  C 1.66510748407643 6.90899349787687  2.6279856687898 8.49075106157113  4.07454219745223 9.37759421443733  C 2.03458399681528 10.3041467622081  0.6328125 12.2874104299364  0.231986464968147 14.7692476114649  L 0.0416500796178363 16.2583499203821  C -0.0591162420382127 17.048125663482  0.565634952229295 17.7474522292994  1.37400477707007 17.7333333333333  L 7.41102707006369 17.7333333333333  C 7.43565883757962 17.7474522292994  7.45805135350318 17.7452461518046  7.48268312101912 17.74304007431  C 7.50731488853503 17.7452461518046  7.52970740445859 17.7474522292994  7.55433917197452 17.7474522292994  C 7.92605493630574 17.7474522292994  8.22611464968152 17.4518378450107  8.22611464968152 17.0856289808917  C 8.22611464968152 16.7194201167729  7.92605493630574 16.4238057324841  7.55433917197452 16.4238057324841  C 7.52970740445859 16.4238057324841  7.50507563694267 16.4260118099788  7.48268312101912 16.4282178874735  C 7.46029060509554 16.4260118099788  7.43565883757962 16.4238057324841  7.41102707006369 16.3779193205944  L 2.13535031847135 16.3779193205944  C 1.73004578025477 16.4238057324841  1.4187898089172 16.0752454883227  1.46805334394905 15.6803576167729  L 1.55986265923567 14.9589702760085  C 1.67854299363057 14.2419950902335  1.89351114649682 13.5757596868365  2.20028861464969 12.9735005307855  C 2.50034832802548 12.3866839171975  2.88102109872611 11.8770800159236  3.3311106687898 11.4535131369427  C 4.25368232484077 10.5931429140128  5.4404856687898 10.1364848726115  6.76836186305733 10.1364848726115  C 7.44013734076433 10.1364848726115  8.08504179936305 10.2578191348195  8.6829219745223 10.5004876592357  C 8.81503781847134 10.5534335191083  8.94491441082803 10.6129976114649  9.0703125 10.676973858811  C 9.16883957006369 10.727713641189  9.27632364649682 10.7519804936306  9.38156847133757 10.7519804936306  C 9.58310111464969 10.7519804936306  9.78015525477706 10.6637373938429  9.91003184713376 10.498281581741  C 10.1675457802548 10.1717821125265  10.0645402070064 9.69306329617831  9.6905851910828 9.50334063163477  Z M 17.7675656847134 10.2159036624204  C 18.0138833598726 9.8541069532909  17.9310310509554 9.37097598195327  17.5637937898089 9.08859806263269  L 15.3155851910828 7.51787088641195  C 15.172273089172 7.42521563163477  15.0065684713376 7.37888800424626  14.8431031050955 7.37888800424626  C 14.5811106687898 7.37888800424626  14.3213574840764 7.49581011146492  14.1690883757962 7.71862393842887  L 9.87644307324841 13.758864118896  C 9.79359076433121 13.880198381104  9.71297770700638 14.080951433121  9.71297770700638 14.2419950902335  L 9.75328423566879 16.5385217622081  C 9.75328423566879 17.0106223460722  10.156349522293 17.3415339702761  10.5750895700637 17.3415339702761  C 10.6557026273885 17.3415339702761  10.7385549363057 17.3282975053078  10.8169287420382 17.3040306528662  L 13.0651373407643 16.5385217622081  C 13.2286027070064 16.4988123673037  13.3920680732484 16.3774781050955  13.4749203821656 16.2561438428874  L 17.7675656847134 10.2159036624204  Z M 9.43083200636942 2.48580812101914  C 10.1406747611465 3.18513468683652  10.5325437898089 4.11609938959665  10.5325437898089 5.10662818471339  C 10.5325437898089 6.09715697983014  10.1406747611465 7.02812168259027  9.43083200636942 7.72744824840765  C 8.72098925159236 8.42677481422504  7.77602507961784 8.81283837579617  6.77060111464969 8.81283837579617  C 5.76517714968152 8.81283837579617  4.820212977707 8.42677481422504  4.11037022292993 7.72744824840765  C 3.40052746815287 7.02812168259027  3.00865843949044 6.09715697983014  3.00865843949044 5.10662818471339  C 3.00865843949044 4.11609938959665  3.40052746815287 3.18513468683652  4.11037022292993 2.48580812101914  C 4.820212977707 1.78648155520175  5.76517714968152 1.40041799363062  6.77060111464969 1.40041799363062  C 7.77602507961784 1.40041799363062  8.72098925159236 1.78648155520175  9.43083200636942 2.48580812101914  Z M 12.4896496815287 15.3340034501062  L 11.085638933121 15.8127222664544  L 11.0610071656051 14.4030387473461  L 14.9707404458599 8.89887539808916  L 16.3680334394904 9.8761677282378  L 12.4896496815287 15.3340034501062  Z " fill-rule="nonzero" fill="#ffffff" stroke="none" fill-opacity="0.647058823529412" transform="matrix(1 0 0 1 14 551 )" />
    <path d="M 9.6905851910828 9.50334063163477  C 9.61221138535031 9.46363123673031  9.53159832802547 9.42392184182584  9.44874601910828 9.38641852441611  C 10.9064988057325 8.49957537154992  11.8760947452229 6.91561173036093  11.8760947452229 5.10662818471339  C 11.8760947452229 2.32917661889601  9.58981886942675 0.0767714968153086  6.77060111464969 0.0767714968153086  C 3.95138335987261 0.0767714968153086  1.66510748407643 2.32917661889601  1.66510748407643 5.10662818471339  C 1.66510748407643 6.90899349787687  2.6279856687898 8.49075106157113  4.07454219745223 9.37759421443733  C 2.03458399681528 10.3041467622081  0.6328125 12.2874104299364  0.231986464968147 14.7692476114649  L 0.0416500796178363 16.2583499203821  C -0.0591162420382127 17.048125663482  0.565634952229295 17.7474522292994  1.37400477707007 17.7333333333333  L 7.41102707006369 17.7333333333333  C 7.43565883757962 17.7474522292994  7.45805135350318 17.7452461518046  7.48268312101912 17.74304007431  C 7.50731488853503 17.7452461518046  7.52970740445859 17.7474522292994  7.55433917197452 17.7474522292994  C 7.92605493630574 17.7474522292994  8.22611464968152 17.4518378450107  8.22611464968152 17.0856289808917  C 8.22611464968152 16.7194201167729  7.92605493630574 16.4238057324841  7.55433917197452 16.4238057324841  C 7.52970740445859 16.4238057324841  7.50507563694267 16.4260118099788  7.48268312101912 16.4282178874735  C 7.46029060509554 16.4260118099788  7.43565883757962 16.4238057324841  7.41102707006369 16.3779193205944  L 2.13535031847135 16.3779193205944  C 1.73004578025477 16.4238057324841  1.4187898089172 16.0752454883227  1.46805334394905 15.6803576167729  L 1.55986265923567 14.9589702760085  C 1.67854299363057 14.2419950902335  1.89351114649682 13.5757596868365  2.20028861464969 12.9735005307855  C 2.50034832802548 12.3866839171975  2.88102109872611 11.8770800159236  3.3311106687898 11.4535131369427  C 4.25368232484077 10.5931429140128  5.4404856687898 10.1364848726115  6.76836186305733 10.1364848726115  C 7.44013734076433 10.1364848726115  8.08504179936305 10.2578191348195  8.6829219745223 10.5004876592357  C 8.81503781847134 10.5534335191083  8.94491441082803 10.6129976114649  9.0703125 10.676973858811  C 9.16883957006369 10.727713641189  9.27632364649682 10.7519804936306  9.38156847133757 10.7519804936306  C 9.58310111464969 10.7519804936306  9.78015525477706 10.6637373938429  9.91003184713376 10.498281581741  C 10.1675457802548 10.1717821125265  10.0645402070064 9.69306329617831  9.6905851910828 9.50334063163477  Z " stroke-width="2" stroke="#b0c398" fill="none" transform="matrix(1 0 0 1 14 551 )" mask="url(#clip13)" />
    <path d="M 17.7675656847134 10.2159036624204  C 18.0138833598726 9.8541069532909  17.9310310509554 9.37097598195327  17.5637937898089 9.08859806263269  L 15.3155851910828 7.51787088641195  C 15.172273089172 7.42521563163477  15.0065684713376 7.37888800424626  14.8431031050955 7.37888800424626  C 14.5811106687898 7.37888800424626  14.3213574840764 7.49581011146492  14.1690883757962 7.71862393842887  L 9.87644307324841 13.758864118896  C 9.79359076433121 13.880198381104  9.71297770700638 14.080951433121  9.71297770700638 14.2419950902335  L 9.75328423566879 16.5385217622081  C 9.75328423566879 17.0106223460722  10.156349522293 17.3415339702761  10.5750895700637 17.3415339702761  C 10.6557026273885 17.3415339702761  10.7385549363057 17.3282975053078  10.8169287420382 17.3040306528662  L 13.0651373407643 16.5385217622081  C 13.2286027070064 16.4988123673037  13.3920680732484 16.3774781050955  13.4749203821656 16.2561438428874  L 17.7675656847134 10.2159036624204  Z " stroke-width="2" stroke="#b0c398" fill="none" transform="matrix(1 0 0 1 14 551 )" mask="url(#clip13)" />
    <path d="M 9.43083200636942 2.48580812101914  C 10.1406747611465 3.18513468683652  10.5325437898089 4.11609938959665  10.5325437898089 5.10662818471339  C 10.5325437898089 6.09715697983014  10.1406747611465 7.02812168259027  9.43083200636942 7.72744824840765  C 8.72098925159236 8.42677481422504  7.77602507961784 8.81283837579617  6.77060111464969 8.81283837579617  C 5.76517714968152 8.81283837579617  4.820212977707 8.42677481422504  4.11037022292993 7.72744824840765  C 3.40052746815287 7.02812168259027  3.00865843949044 6.09715697983014  3.00865843949044 5.10662818471339  C 3.00865843949044 4.11609938959665  3.40052746815287 3.18513468683652  4.11037022292993 2.48580812101914  C 4.820212977707 1.78648155520175  5.76517714968152 1.40041799363062  6.77060111464969 1.40041799363062  C 7.77602507961784 1.40041799363062  8.72098925159236 1.78648155520175  9.43083200636942 2.48580812101914  Z " stroke-width="2" stroke="#b0c398" fill="none" transform="matrix(1 0 0 1 14 551 )" mask="url(#clip13)" />
    <path d="M 12.4896496815287 15.3340034501062  L 11.085638933121 15.8127222664544  L 11.0610071656051 14.4030387473461  L 14.9707404458599 8.89887539808916  L 16.3680334394904 9.8761677282378  L 12.4896496815287 15.3340034501062  Z " stroke-width="2" stroke="#b0c398" fill="none" transform="matrix(1 0 0 1 14 551 )" mask="url(#clip13)" />
  </g>
</svg>