<?xml version="1.0" encoding="utf-8"?>
<svg version="1.1" xmlns:xlink="http://www.w3.org/1999/xlink" width="18px" height="19px" xmlns="http://www.w3.org/2000/svg">
  <defs>
    <mask fill="white" id="clip15">
      <path d="M 14.8881728830645 13.2523371975806  C 14.8881728830645 14.0948046034947  14.1949369959677 14.7777703293011  13.3397782258065 14.7777703293011  C 12.4846194556452 14.7777703293011  11.7913835685484 14.0948046034947  11.7913835685484 13.2523371975806  C 11.7913835685484 12.4098474462366  12.4846194556452 11.7268817204301  13.3397782258065 11.7268817204301  C 14.1949369959677 11.7268817204301  14.8881728830645 12.4098474462366  14.8881728830645 13.2523371975806  Z M 12.952673891129 13.2523371975806  C 12.952673891129 13.4629428763441  13.1259828629032 13.6336843077957  13.3397782258065 13.6336843077957  C 13.5535735887097 13.6336843077957  13.7268825604839 13.4629652217742  13.7268825604839 13.2523371975806  C 13.7268825604839 13.0417091733871  13.5535735887097 12.8709677419356  13.3397782258065 12.8709677419356  C 13.1259828629032 12.8709677419356  12.952673891129 13.0417091733871  12.952673891129 13.2523371975806  Z M 14.8282711693548 10.7123545026882  L 11.8512852822581 10.7123545026882  L 10.3627923387097 13.2523371975806  L 11.8512852822581 15.792297547043  L 14.8282938508065 15.792297547043  L 16.3168094758064 13.2523371975806  L 14.8282938508065 10.7123545026882  Z M 13.2429964717742 4.67169203629035  C 13.2429964717742 7.21303780241938  11.1832711693548 9.28043699596785  8.61872479838709 9.34195396505381  C 4.80275201612904 10.3381579301076  2.60519153225806 12.1839351478496  1.89269909274193 14.896402217742  C 1.74540574596775 15.4571384408603  2.08741935483871 16.0293378696237  2.6565650201613 16.1744490927421  C 2.74367002024689 16.1966506066548  2.83328062136022 16.2078830801054  2.9232535282258 16.2078778561829  L 8.59048639112902 16.2078778561829  C 9.07149193548388 16.2078778561829  9.46145413306452 16.5920628360215  9.46145413306452 17.0659423723119  C 9.46145413306452 17.5398442540324  9.07149193548388 17.9240068884409  8.59048639112902 17.9240068884409  L 2.9232535282258 17.9240068884409  C 2.68605403079329 17.9240125443068  2.4498107171833 17.8943921570891  2.22017389112903 17.8358541666668  C 0.719659778225812 17.4533004032259  -0.181995967741934 15.9447604166668  0.206287802419348 14.4664761424732  C 0.917011088709679 11.7606903561828  2.79546622983871 9.76660651881729  5.77270161290322 8.49309576612905  C 4.55475302419355 7.64754469086025  3.75913306451613 6.25115641801084  3.75913306451613 4.67169203629035  C 3.75913306451613 2.09157694892478  5.8821622983871 0  8.50107610887097 0  C 11.1199672379032 0  13.2429964717742 2.09157694892478  13.2429964717742 4.67169203629035  Z M 17.8812172379032 13.6336843077957  L 15.9457409274194 16.9363835685485  C 15.8074489854119 17.1723728838141  15.5518692051302 17.3177503595419  15.2752772177419 17.3177530241936  L 11.404279233871 17.3177530241936  C 11.1276872464827 17.3177503595419  10.872107466201 17.1723728838141  10.7338155241935 16.9363835685485  L 8.79831653225807 13.6336843077957  C 8.66002152542464 13.3976989810571  8.66002152542462 13.1069530686742  8.79831653225807 12.8709677419356  L 10.7337928427419 9.56826848118282  C 10.8720905488239 9.33228776667709  11.1276692434714 9.18691942648273  11.4042565524194 9.18692137096773  L 15.2752772177419 9.18692137096773  C 15.5518645266899 9.18691942648273  15.8074432213374 9.33228776667709  15.9457409274194 9.56826848118282  L 17.8812399193548 12.8709677419356  C 18.0195349261883 13.1069530686742  18.0195349261883 13.3976989810571  17.8812399193548 13.6336843077957  Z M 5.5010685483871 4.67169203629035  C 5.5010685483871 6.30400336021509  6.84421874999999 7.6272326948925  8.50107610887097 7.6272326948925  C 10.1579107862903 7.6272326948925  11.5010609879032 6.30400336021509  11.5010609879032 4.67169203629035  C 11.5010609879032 3.03935836693549  10.1579107862903 1.71612903225809  8.50107610887097 1.71612903225809  C 6.8441960685484 1.71612903225809  5.5010685483871 3.0393807123656  5.5010685483871 4.67169203629035  Z " fill-rule="evenodd" />
    </mask>
  </defs>
  <g transform="matrix(1 0 0 1 -14 -656 )">
    <path d="M 14.8881728830645 13.2523371975806  C 14.8881728830645 14.0948046034947  14.1949369959677 14.7777703293011  13.3397782258065 14.7777703293011  C 12.4846194556452 14.7777703293011  11.7913835685484 14.0948046034947  11.7913835685484 13.2523371975806  C 11.7913835685484 12.4098474462366  12.4846194556452 11.7268817204301  13.3397782258065 11.7268817204301  C 14.1949369959677 11.7268817204301  14.8881728830645 12.4098474462366  14.8881728830645 13.2523371975806  Z M 12.952673891129 13.2523371975806  C 12.952673891129 13.4629428763441  13.1259828629032 13.6336843077957  13.3397782258065 13.6336843077957  C 13.5535735887097 13.6336843077957  13.7268825604839 13.4629652217742  13.7268825604839 13.2523371975806  C 13.7268825604839 13.0417091733871  13.5535735887097 12.8709677419356  13.3397782258065 12.8709677419356  C 13.1259828629032 12.8709677419356  12.952673891129 13.0417091733871  12.952673891129 13.2523371975806  Z M 14.8282711693548 10.7123545026882  L 11.8512852822581 10.7123545026882  L 10.3627923387097 13.2523371975806  L 11.8512852822581 15.792297547043  L 14.8282938508065 15.792297547043  L 16.3168094758064 13.2523371975806  L 14.8282938508065 10.7123545026882  Z M 13.2429964717742 4.67169203629035  C 13.2429964717742 7.21303780241938  11.1832711693548 9.28043699596785  8.61872479838709 9.34195396505381  C 4.80275201612904 10.3381579301076  2.60519153225806 12.1839351478496  1.89269909274193 14.896402217742  C 1.74540574596775 15.4571384408603  2.08741935483871 16.0293378696237  2.6565650201613 16.1744490927421  C 2.74367002024689 16.1966506066548  2.83328062136022 16.2078830801054  2.9232535282258 16.2078778561829  L 8.59048639112902 16.2078778561829  C 9.07149193548388 16.2078778561829  9.46145413306452 16.5920628360215  9.46145413306452 17.0659423723119  C 9.46145413306452 17.5398442540324  9.07149193548388 17.9240068884409  8.59048639112902 17.9240068884409  L 2.9232535282258 17.9240068884409  C 2.68605403079329 17.9240125443068  2.4498107171833 17.8943921570891  2.22017389112903 17.8358541666668  C 0.719659778225812 17.4533004032259  -0.181995967741934 15.9447604166668  0.206287802419348 14.4664761424732  C 0.917011088709679 11.7606903561828  2.79546622983871 9.76660651881729  5.77270161290322 8.49309576612905  C 4.55475302419355 7.64754469086025  3.75913306451613 6.25115641801084  3.75913306451613 4.67169203629035  C 3.75913306451613 2.09157694892478  5.8821622983871 0  8.50107610887097 0  C 11.1199672379032 0  13.2429964717742 2.09157694892478  13.2429964717742 4.67169203629035  Z M 17.8812172379032 13.6336843077957  L 15.9457409274194 16.9363835685485  C 15.8074489854119 17.1723728838141  15.5518692051302 17.3177503595419  15.2752772177419 17.3177530241936  L 11.404279233871 17.3177530241936  C 11.1276872464827 17.3177503595419  10.872107466201 17.1723728838141  10.7338155241935 16.9363835685485  L 8.79831653225807 13.6336843077957  C 8.66002152542464 13.3976989810571  8.66002152542462 13.1069530686742  8.79831653225807 12.8709677419356  L 10.7337928427419 9.56826848118282  C 10.8720905488239 9.33228776667709  11.1276692434714 9.18691942648273  11.4042565524194 9.18692137096773  L 15.2752772177419 9.18692137096773  C 15.5518645266899 9.18691942648273  15.8074432213374 9.33228776667709  15.9457409274194 9.56826848118282  L 17.8812399193548 12.8709677419356  C 18.0195349261883 13.1069530686742  18.0195349261883 13.3976989810571  17.8812399193548 13.6336843077957  Z M 5.5010685483871 4.67169203629035  C 5.5010685483871 6.30400336021509  6.84421874999999 7.6272326948925  8.50107610887097 7.6272326948925  C 10.1579107862903 7.6272326948925  11.5010609879032 6.30400336021509  11.5010609879032 4.67169203629035  C 11.5010609879032 3.03935836693549  10.1579107862903 1.71612903225809  8.50107610887097 1.71612903225809  C 6.8441960685484 1.71612903225809  5.5010685483871 3.0393807123656  5.5010685483871 4.67169203629035  Z " fill-rule="nonzero" fill="#ffffff" stroke="none" fill-opacity="0.647058823529412" transform="matrix(1 0 0 1 14 656 )" />
    <path d="M 14.8881728830645 13.2523371975806  C 14.8881728830645 14.0948046034947  14.1949369959677 14.7777703293011  13.3397782258065 14.7777703293011  C 12.4846194556452 14.7777703293011  11.7913835685484 14.0948046034947  11.7913835685484 13.2523371975806  C 11.7913835685484 12.4098474462366  12.4846194556452 11.7268817204301  13.3397782258065 11.7268817204301  C 14.1949369959677 11.7268817204301  14.8881728830645 12.4098474462366  14.8881728830645 13.2523371975806  Z " stroke-width="2" stroke="#b0c398" fill="none" transform="matrix(1 0 0 1 14 656 )" mask="url(#clip15)" />
    <path d="M 12.952673891129 13.2523371975806  C 12.952673891129 13.4629428763441  13.1259828629032 13.6336843077957  13.3397782258065 13.6336843077957  C 13.5535735887097 13.6336843077957  13.7268825604839 13.4629652217742  13.7268825604839 13.2523371975806  C 13.7268825604839 13.0417091733871  13.5535735887097 12.8709677419356  13.3397782258065 12.8709677419356  C 13.1259828629032 12.8709677419356  12.952673891129 13.0417091733871  12.952673891129 13.2523371975806  Z " stroke-width="2" stroke="#b0c398" fill="none" transform="matrix(1 0 0 1 14 656 )" mask="url(#clip15)" />
    <path d="M 14.8282711693548 10.7123545026882  L 11.8512852822581 10.7123545026882  L 10.3627923387097 13.2523371975806  L 11.8512852822581 15.792297547043  L 14.8282938508065 15.792297547043  L 16.3168094758064 13.2523371975806  L 14.8282938508065 10.7123545026882  Z " stroke-width="2" stroke="#b0c398" fill="none" transform="matrix(1 0 0 1 14 656 )" mask="url(#clip15)" />
    <path d="M 13.2429964717742 4.67169203629035  C 13.2429964717742 7.21303780241938  11.1832711693548 9.28043699596785  8.61872479838709 9.34195396505381  C 4.80275201612904 10.3381579301076  2.60519153225806 12.1839351478496  1.89269909274193 14.896402217742  C 1.74540574596775 15.4571384408603  2.08741935483871 16.0293378696237  2.6565650201613 16.1744490927421  C 2.74367002024689 16.1966506066548  2.83328062136022 16.2078830801054  2.9232535282258 16.2078778561829  L 8.59048639112902 16.2078778561829  C 9.07149193548388 16.2078778561829  9.46145413306452 16.5920628360215  9.46145413306452 17.0659423723119  C 9.46145413306452 17.5398442540324  9.07149193548388 17.9240068884409  8.59048639112902 17.9240068884409  L 2.9232535282258 17.9240068884409  C 2.68605403079329 17.9240125443068  2.4498107171833 17.8943921570891  2.22017389112903 17.8358541666668  C 0.719659778225812 17.4533004032259  -0.181995967741934 15.9447604166668  0.206287802419348 14.4664761424732  C 0.917011088709679 11.7606903561828  2.79546622983871 9.76660651881729  5.77270161290322 8.49309576612905  C 4.55475302419355 7.64754469086025  3.75913306451613 6.25115641801084  3.75913306451613 4.67169203629035  C 3.75913306451613 2.09157694892478  5.8821622983871 0  8.50107610887097 0  C 11.1199672379032 0  13.2429964717742 2.09157694892478  13.2429964717742 4.67169203629035  Z " stroke-width="2" stroke="#b0c398" fill="none" transform="matrix(1 0 0 1 14 656 )" mask="url(#clip15)" />
    <path d="M 17.8812172379032 13.6336843077957  L 15.9457409274194 16.9363835685485  C 15.8074489854119 17.1723728838141  15.5518692051302 17.3177503595419  15.2752772177419 17.3177530241936  L 11.404279233871 17.3177530241936  C 11.1276872464827 17.3177503595419  10.872107466201 17.1723728838141  10.7338155241935 16.9363835685485  L 8.79831653225807 13.6336843077957  C 8.66002152542464 13.3976989810571  8.66002152542462 13.1069530686742  8.79831653225807 12.8709677419356  L 10.7337928427419 9.56826848118282  C 10.8720905488239 9.33228776667709  11.1276692434714 9.18691942648273  11.4042565524194 9.18692137096773  L 15.2752772177419 9.18692137096773  C 15.5518645266899 9.18691942648273  15.8074432213374 9.33228776667709  15.9457409274194 9.56826848118282  L 17.8812399193548 12.8709677419356  C 18.0195349261883 13.1069530686742  18.0195349261883 13.3976989810571  17.8812399193548 13.6336843077957  Z " stroke-width="2" stroke="#b0c398" fill="none" transform="matrix(1 0 0 1 14 656 )" mask="url(#clip15)" />
    <path d="M 5.5010685483871 4.67169203629035  C 5.5010685483871 6.30400336021509  6.84421874999999 7.6272326948925  8.50107610887097 7.6272326948925  C 10.1579107862903 7.6272326948925  11.5010609879032 6.30400336021509  11.5010609879032 4.67169203629035  C 11.5010609879032 3.03935836693549  10.1579107862903 1.71612903225809  8.50107610887097 1.71612903225809  C 6.8441960685484 1.71612903225809  5.5010685483871 3.0393807123656  5.5010685483871 4.67169203629035  Z " stroke-width="2" stroke="#b0c398" fill="none" transform="matrix(1 0 0 1 14 656 )" mask="url(#clip15)" />
  </g>
</svg>